<svg width="710" height="136" viewBox="0 0 710 136" fill="none" xmlns="http://www.w3.org/2000/svg">
<rect x="1" y="1" width="708" height="134" rx="12" fill="#FFF7F7"/>
<rect x="1" y="1" width="708" height="134" rx="12" stroke="#F83C4D" stroke-width="1.5" stroke-dasharray="6 6"/>
<path d="M350 60.5V51.5L347 54.5" stroke="#7F879E" stroke-width="2" stroke-linecap="round" stroke-linejoin="round"/>
<path d="M350 51.5L353 54.5" stroke="#7F879E" stroke-width="2" stroke-linecap="round" stroke-linejoin="round"/>
<path d="M369.5 50V57.5C369.5 65 366.5 68 359 68H350C342.5 68 339.5 65 339.5 57.5V48.5C339.5 41 342.5 38 350 38H357.5" stroke="#7F879E" stroke-width="2" stroke-linecap="round" stroke-linejoin="round"/>
<path d="M369.5 50H363.5C359 50 357.5 48.5 357.5 44V38L369.5 50Z" stroke="#7F879E" stroke-width="2" stroke-linecap="round" stroke-linejoin="round"/>
<path d="M263.726 87.242C264.79 87.242 265.71 87.4427 266.484 87.844C267.268 88.236 267.866 88.8007 268.276 89.538C268.696 90.2753 268.906 91.1433 268.906 92.142C268.906 93.1407 268.696 94.0087 268.276 94.746C267.866 95.474 267.268 96.034 266.484 96.426C265.71 96.8087 264.79 97 263.726 97H260.688V87.242H263.726ZM263.726 95.95C264.986 95.95 265.948 95.6187 266.61 94.956C267.273 94.284 267.604 93.346 267.604 92.142C267.604 90.9287 267.268 89.9813 266.596 89.3C265.934 88.6187 264.977 88.278 263.726 88.278H261.962V95.95H263.726ZM271.861 90.574C272.085 90.1353 272.402 89.7947 272.813 89.552C273.233 89.3093 273.741 89.188 274.339 89.188V90.504H274.003C272.575 90.504 271.861 91.2787 271.861 92.828V97H270.587V89.328H271.861V90.574ZM275.333 93.136C275.333 92.352 275.492 91.666 275.809 91.078C276.127 90.4807 276.561 90.0187 277.111 89.692C277.671 89.3653 278.292 89.202 278.973 89.202C279.645 89.202 280.229 89.3467 280.723 89.636C281.218 89.9253 281.587 90.2893 281.829 90.728V89.328H283.117V97H281.829V95.572C281.577 96.02 281.199 96.3933 280.695 96.692C280.201 96.9813 279.622 97.126 278.959 97.126C278.278 97.126 277.662 96.958 277.111 96.622C276.561 96.286 276.127 95.8147 275.809 95.208C275.492 94.6013 275.333 93.9107 275.333 93.136ZM281.829 93.15C281.829 92.5713 281.713 92.0673 281.479 91.638C281.246 91.2087 280.929 90.882 280.527 90.658C280.135 90.4247 279.701 90.308 279.225 90.308C278.749 90.308 278.315 90.42 277.923 90.644C277.531 90.868 277.219 91.1947 276.985 91.624C276.752 92.0533 276.635 92.5573 276.635 93.136C276.635 93.724 276.752 94.2373 276.985 94.676C277.219 95.1053 277.531 95.4367 277.923 95.67C278.315 95.894 278.749 96.006 279.225 96.006C279.701 96.006 280.135 95.894 280.527 95.67C280.929 95.4367 281.246 95.1053 281.479 94.676C281.713 94.2373 281.829 93.7287 281.829 93.15ZM288.434 89.202C289.097 89.202 289.676 89.3467 290.17 89.636C290.674 89.9253 291.048 90.2893 291.29 90.728V89.328H292.578V97.168C292.578 97.868 292.429 98.4887 292.13 99.03C291.832 99.5807 291.402 100.01 290.842 100.318C290.292 100.626 289.648 100.78 288.91 100.78C287.902 100.78 287.062 100.542 286.39 100.066C285.718 99.59 285.322 98.9413 285.2 98.12H286.46C286.6 98.5867 286.89 98.96 287.328 99.24C287.767 99.5293 288.294 99.674 288.91 99.674C289.61 99.674 290.18 99.4547 290.618 99.016C291.066 98.5773 291.29 97.9613 291.29 97.168V95.558C291.038 96.006 290.665 96.3793 290.17 96.678C289.676 96.9767 289.097 97.126 288.434 97.126C287.753 97.126 287.132 96.958 286.572 96.622C286.022 96.286 285.588 95.8147 285.27 95.208C284.953 94.6013 284.794 93.9107 284.794 93.136C284.794 92.352 284.953 91.666 285.27 91.078C285.588 90.4807 286.022 90.0187 286.572 89.692C287.132 89.3653 287.753 89.202 288.434 89.202ZM291.29 93.15C291.29 92.5713 291.174 92.0673 290.94 91.638C290.707 91.2087 290.39 90.882 289.988 90.658C289.596 90.4247 289.162 90.308 288.686 90.308C288.21 90.308 287.776 90.42 287.384 90.644C286.992 90.868 286.68 91.1947 286.446 91.624C286.213 92.0533 286.096 92.5573 286.096 93.136C286.096 93.724 286.213 94.2373 286.446 94.676C286.68 95.1053 286.992 95.4367 287.384 95.67C287.776 95.894 288.21 96.006 288.686 96.006C289.162 96.006 289.596 95.894 289.988 95.67C290.39 95.4367 290.707 95.1053 290.94 94.676C291.174 94.2373 291.29 93.7287 291.29 93.15ZM301.81 97.126C301.091 97.126 300.438 96.9627 299.85 96.636C299.271 96.3093 298.814 95.8473 298.478 95.25C298.151 94.6433 297.988 93.9433 297.988 93.15C297.988 92.366 298.156 91.6753 298.492 91.078C298.837 90.4713 299.304 90.0093 299.892 89.692C300.48 89.3653 301.138 89.202 301.866 89.202C302.594 89.202 303.252 89.3653 303.84 89.692C304.428 90.0093 304.89 90.4667 305.226 91.064C305.571 91.6613 305.744 92.3567 305.744 93.15C305.744 93.9433 305.566 94.6433 305.212 95.25C304.866 95.8473 304.395 96.3093 303.798 96.636C303.2 96.9627 302.538 97.126 301.81 97.126ZM301.81 96.006C302.267 96.006 302.696 95.8987 303.098 95.684C303.499 95.4693 303.821 95.1473 304.064 94.718C304.316 94.2887 304.442 93.766 304.442 93.15C304.442 92.534 304.32 92.0113 304.078 91.582C303.835 91.1527 303.518 90.8353 303.126 90.63C302.734 90.4153 302.309 90.308 301.852 90.308C301.385 90.308 300.956 90.4153 300.564 90.63C300.181 90.8353 299.873 91.1527 299.64 91.582C299.406 92.0113 299.29 92.534 299.29 93.15C299.29 93.7753 299.402 94.3027 299.626 94.732C299.859 95.1613 300.167 95.4833 300.55 95.698C300.932 95.9033 301.352 96.006 301.81 96.006ZM308.693 90.574C308.917 90.1353 309.234 89.7947 309.645 89.552C310.065 89.3093 310.573 89.188 311.171 89.188V90.504H310.835C309.407 90.504 308.693 91.2787 308.693 92.828V97H307.419V89.328H308.693V90.574ZM371.119 90.742C371.371 90.3033 371.744 89.9393 372.239 89.65C372.743 89.3513 373.326 89.202 373.989 89.202C374.67 89.202 375.286 89.3653 375.837 89.692C376.397 90.0187 376.835 90.4807 377.153 91.078C377.47 91.666 377.629 92.352 377.629 93.136C377.629 93.9107 377.47 94.6013 377.153 95.208C376.835 95.8147 376.397 96.286 375.837 96.622C375.286 96.958 374.67 97.126 373.989 97.126C373.335 97.126 372.757 96.9813 372.253 96.692C371.758 96.3933 371.38 96.0247 371.119 95.586V100.64H369.845V89.328H371.119V90.742ZM376.327 93.136C376.327 92.5573 376.21 92.0533 375.977 91.624C375.743 91.1947 375.426 90.868 375.025 90.644C374.633 90.42 374.199 90.308 373.723 90.308C373.256 90.308 372.822 90.4247 372.421 90.658C372.029 90.882 371.711 91.2133 371.469 91.652C371.235 92.0813 371.119 92.5807 371.119 93.15C371.119 93.7287 371.235 94.2373 371.469 94.676C371.711 95.1053 372.029 95.4367 372.421 95.67C372.822 95.894 373.256 96.006 373.723 96.006C374.199 96.006 374.633 95.894 375.025 95.67C375.426 95.4367 375.743 95.1053 375.977 94.676C376.21 94.2373 376.327 93.724 376.327 93.136ZM380.58 90.574C380.804 90.1353 381.121 89.7947 381.532 89.552C381.952 89.3093 382.46 89.188 383.058 89.188V90.504H382.722C381.294 90.504 380.58 91.2787 380.58 92.828V97H379.306V89.328H380.58V90.574ZM387.874 97.126C387.156 97.126 386.502 96.9627 385.914 96.636C385.336 96.3093 384.878 95.8473 384.542 95.25C384.216 94.6433 384.052 93.9433 384.052 93.15C384.052 92.366 384.22 91.6753 384.556 91.078C384.902 90.4713 385.368 90.0093 385.956 89.692C386.544 89.3653 387.202 89.202 387.93 89.202C388.658 89.202 389.316 89.3653 389.904 89.692C390.492 90.0093 390.954 90.4667 391.29 91.064C391.636 91.6613 391.808 92.3567 391.808 93.15C391.808 93.9433 391.631 94.6433 391.276 95.25C390.931 95.8473 390.46 96.3093 389.862 96.636C389.265 96.9627 388.602 97.126 387.874 97.126ZM387.874 96.006C388.332 96.006 388.761 95.8987 389.162 95.684C389.564 95.4693 389.886 95.1473 390.128 94.718C390.38 94.2887 390.506 93.766 390.506 93.15C390.506 92.534 390.385 92.0113 390.142 91.582C389.9 91.1527 389.582 90.8353 389.19 90.63C388.798 90.4153 388.374 90.308 387.916 90.308C387.45 90.308 387.02 90.4153 386.628 90.63C386.246 90.8353 385.938 91.1527 385.704 91.582C385.471 92.0113 385.354 92.534 385.354 93.15C385.354 93.7753 385.466 94.3027 385.69 94.732C385.924 95.1613 386.232 95.4833 386.614 95.698C386.997 95.9033 387.417 96.006 387.874 96.006ZM394.169 88.082C393.927 88.082 393.721 87.998 393.553 87.83C393.395 87.662 393.315 87.4567 393.315 87.214C393.315 86.9713 393.395 86.766 393.553 86.598C393.721 86.43 393.927 86.346 394.169 86.346C394.412 86.346 394.613 86.43 394.771 86.598C394.939 86.766 395.023 86.9713 395.023 87.214C395.023 87.4567 394.939 87.662 394.771 87.83C394.613 87.998 394.412 88.082 394.169 88.082ZM394.799 98.666C394.799 99.3473 394.627 99.8467 394.281 100.164C393.936 100.481 393.432 100.64 392.769 100.64H392.027V99.562H392.559C392.914 99.562 393.161 99.492 393.301 99.352C393.451 99.212 393.525 98.974 393.525 98.638V89.328H394.799V98.666ZM403.956 92.87C403.956 93.1127 403.942 93.3693 403.914 93.64H397.782C397.829 94.396 398.085 94.9887 398.552 95.418C399.028 95.838 399.602 96.048 400.274 96.048C400.825 96.048 401.282 95.922 401.646 95.67C402.019 95.4087 402.281 95.0633 402.43 94.634H403.802C403.597 95.3713 403.186 95.9733 402.57 96.44C401.954 96.8973 401.189 97.126 400.274 97.126C399.546 97.126 398.893 96.9627 398.314 96.636C397.745 96.3093 397.297 95.8473 396.97 95.25C396.643 94.6433 396.48 93.9433 396.48 93.15C396.48 92.3567 396.639 91.6613 396.956 91.064C397.273 90.4667 397.717 90.0093 398.286 89.692C398.865 89.3653 399.527 89.202 400.274 89.202C401.002 89.202 401.646 89.3607 402.206 89.678C402.766 89.9953 403.195 90.434 403.494 90.994C403.802 91.5447 403.956 92.17 403.956 92.87ZM402.64 92.604C402.64 92.1187 402.533 91.7033 402.318 91.358C402.103 91.0033 401.809 90.7373 401.436 90.56C401.072 90.3733 400.666 90.28 400.218 90.28C399.574 90.28 399.023 90.4853 398.566 90.896C398.118 91.3067 397.861 91.876 397.796 92.604H402.64ZM405.162 93.15C405.162 92.3567 405.32 91.666 405.638 91.078C405.955 90.4807 406.394 90.0187 406.954 89.692C407.523 89.3653 408.172 89.202 408.9 89.202C409.842 89.202 410.617 89.4307 411.224 89.888C411.84 90.3453 412.246 90.98 412.442 91.792H411.07C410.939 91.3253 410.682 90.9567 410.3 90.686C409.926 90.4153 409.46 90.28 408.9 90.28C408.172 90.28 407.584 90.532 407.136 91.036C406.688 91.5307 406.464 92.2353 406.464 93.15C406.464 94.074 406.688 94.788 407.136 95.292C407.584 95.796 408.172 96.048 408.9 96.048C409.46 96.048 409.926 95.9173 410.3 95.656C410.673 95.3947 410.93 95.0213 411.07 94.536H412.442C412.236 95.32 411.826 95.95 411.21 96.426C410.594 96.8927 409.824 97.126 408.9 97.126C408.172 97.126 407.523 96.9627 406.954 96.636C406.394 96.3093 405.955 95.8473 405.638 95.25C405.32 94.6527 405.162 93.9527 405.162 93.15ZM415.695 90.378V94.9C415.695 95.2733 415.775 95.5393 415.933 95.698C416.092 95.8473 416.367 95.922 416.759 95.922H417.697V97H416.549C415.84 97 415.308 96.8367 414.953 96.51C414.599 96.1833 414.421 95.6467 414.421 94.9V90.378H413.427V89.328H414.421V87.396H415.695V89.328H417.697V90.378H415.695ZM426.096 90.378H424.486V97H423.212V90.378H422.218V89.328H423.212V88.782C423.212 87.9233 423.431 87.298 423.87 86.906C424.318 86.5047 425.032 86.304 426.012 86.304V87.368C425.452 87.368 425.055 87.48 424.822 87.704C424.598 87.9187 424.486 88.278 424.486 88.782V89.328H426.096V90.378ZM428.239 88.082C427.996 88.082 427.791 87.998 427.623 87.83C427.455 87.662 427.371 87.4567 427.371 87.214C427.371 86.9713 427.455 86.766 427.623 86.598C427.791 86.43 427.996 86.346 428.239 86.346C428.472 86.346 428.668 86.43 428.827 86.598C428.995 86.766 429.079 86.9713 429.079 87.214C429.079 87.4567 428.995 87.662 428.827 87.83C428.668 87.998 428.472 88.082 428.239 88.082ZM428.855 89.328V97H427.581V89.328H428.855ZM432.3 86.64V97H431.026V86.64H432.3ZM441.472 92.87C441.472 93.1127 441.458 93.3693 441.43 93.64H435.298C435.344 94.396 435.601 94.9887 436.068 95.418C436.544 95.838 437.118 96.048 437.79 96.048C438.34 96.048 438.798 95.922 439.162 95.67C439.535 95.4087 439.796 95.0633 439.946 94.634H441.318C441.112 95.3713 440.702 95.9733 440.086 96.44C439.47 96.8973 438.704 97.126 437.79 97.126C437.062 97.126 436.408 96.9627 435.83 96.636C435.26 96.3093 434.812 95.8473 434.486 95.25C434.159 94.6433 433.996 93.9433 433.996 93.15C433.996 92.3567 434.154 91.6613 434.472 91.064C434.789 90.4667 435.232 90.0093 435.802 89.692C436.38 89.3653 437.043 89.202 437.79 89.202C438.518 89.202 439.162 89.3607 439.722 89.678C440.282 89.9953 440.711 90.434 441.01 90.994C441.318 91.5447 441.472 92.17 441.472 92.87ZM440.156 92.604C440.156 92.1187 440.048 91.7033 439.834 91.358C439.619 91.0033 439.325 90.7373 438.952 90.56C438.588 90.3733 438.182 90.28 437.734 90.28C437.09 90.28 436.539 90.4853 436.082 90.896C435.634 91.3067 435.377 91.876 435.312 92.604H440.156ZM445.869 97.126C445.281 97.126 444.754 97.028 444.287 96.832C443.821 96.6267 443.452 96.3467 443.181 95.992C442.911 95.628 442.761 95.2127 442.733 94.746H444.049C444.087 95.1287 444.264 95.4413 444.581 95.684C444.908 95.9267 445.333 96.048 445.855 96.048C446.341 96.048 446.723 95.9407 447.003 95.726C447.283 95.5113 447.423 95.2407 447.423 94.914C447.423 94.578 447.274 94.3307 446.975 94.172C446.677 94.004 446.215 93.8407 445.589 93.682C445.02 93.5327 444.553 93.3833 444.189 93.234C443.835 93.0753 443.527 92.8467 443.265 92.548C443.013 92.24 442.887 91.8387 442.887 91.344C442.887 90.952 443.004 90.5927 443.237 90.266C443.471 89.9393 443.802 89.6827 444.231 89.496C444.661 89.3 445.151 89.202 445.701 89.202C446.551 89.202 447.237 89.4167 447.759 89.846C448.282 90.2753 448.562 90.8633 448.599 91.61H447.325C447.297 91.2087 447.134 90.8867 446.835 90.644C446.546 90.4013 446.154 90.28 445.659 90.28C445.202 90.28 444.838 90.378 444.567 90.574C444.297 90.77 444.161 91.0267 444.161 91.344C444.161 91.596 444.241 91.806 444.399 91.974C444.567 92.1327 444.773 92.2633 445.015 92.366C445.267 92.4593 445.613 92.5667 446.051 92.688C446.602 92.8373 447.05 92.9867 447.395 93.136C447.741 93.276 448.035 93.4907 448.277 93.78C448.529 94.0693 448.66 94.4473 448.669 94.914C448.669 95.334 448.553 95.712 448.319 96.048C448.086 96.384 447.755 96.65 447.325 96.846C446.905 97.0327 446.42 97.126 445.869 97.126Z" fill="#7F879E"/>
<path d="M323.178 89.328V97H321.904V95.866C321.661 96.258 321.321 96.566 320.882 96.79C320.453 97.0047 319.977 97.112 319.454 97.112C318.857 97.112 318.32 96.9907 317.844 96.748C317.368 96.496 316.99 96.1227 316.71 95.628C316.439 95.1333 316.304 94.5313 316.304 93.822V89.328H317.564V93.654C317.564 94.41 317.755 94.9933 318.138 95.404C318.521 95.8053 319.043 96.006 319.706 96.006C320.387 96.006 320.924 95.796 321.316 95.376C321.708 94.956 321.904 94.3447 321.904 93.542V89.328H323.178ZM326.603 90.742C326.855 90.3033 327.228 89.9393 327.723 89.65C328.227 89.3513 328.81 89.202 329.473 89.202C330.154 89.202 330.77 89.3653 331.321 89.692C331.881 90.0187 332.32 90.4807 332.637 91.078C332.954 91.666 333.113 92.352 333.113 93.136C333.113 93.9107 332.954 94.6013 332.637 95.208C332.32 95.8147 331.881 96.286 331.321 96.622C330.77 96.958 330.154 97.126 329.473 97.126C328.82 97.126 328.241 96.9813 327.737 96.692C327.242 96.3933 326.864 96.0247 326.603 95.586V100.64H325.329V89.328H326.603V90.742ZM331.811 93.136C331.811 92.5573 331.694 92.0533 331.461 91.624C331.228 91.1947 330.91 90.868 330.509 90.644C330.117 90.42 329.683 90.308 329.207 90.308C328.74 90.308 328.306 90.4247 327.905 90.658C327.513 90.882 327.196 91.2133 326.953 91.652C326.72 92.0813 326.603 92.5807 326.603 93.15C326.603 93.7287 326.72 94.2373 326.953 94.676C327.196 95.1053 327.513 95.4367 327.905 95.67C328.306 95.894 328.74 96.006 329.207 96.006C329.683 96.006 330.117 95.894 330.509 95.67C330.91 95.4367 331.228 95.1053 331.461 94.676C331.694 94.2373 331.811 93.724 331.811 93.136ZM336.064 86.64V97H334.79V86.64H336.064ZM341.581 97.126C340.863 97.126 340.209 96.9627 339.621 96.636C339.043 96.3093 338.585 95.8473 338.249 95.25C337.923 94.6433 337.759 93.9433 337.759 93.15C337.759 92.366 337.927 91.6753 338.263 91.078C338.609 90.4713 339.075 90.0093 339.663 89.692C340.251 89.3653 340.909 89.202 341.637 89.202C342.365 89.202 343.023 89.3653 343.611 89.692C344.199 90.0093 344.661 90.4667 344.997 91.064C345.343 91.6613 345.515 92.3567 345.515 93.15C345.515 93.9433 345.338 94.6433 344.983 95.25C344.638 95.8473 344.167 96.3093 343.569 96.636C342.972 96.9627 342.309 97.126 341.581 97.126ZM341.581 96.006C342.039 96.006 342.468 95.8987 342.869 95.684C343.271 95.4693 343.593 95.1473 343.835 94.718C344.087 94.2887 344.213 93.766 344.213 93.15C344.213 92.534 344.092 92.0113 343.849 91.582C343.607 91.1527 343.289 90.8353 342.897 90.63C342.505 90.4153 342.081 90.308 341.623 90.308C341.157 90.308 340.727 90.4153 340.335 90.63C339.953 90.8353 339.645 91.1527 339.411 91.582C339.178 92.0113 339.061 92.534 339.061 93.15C339.061 93.7753 339.173 94.3027 339.397 94.732C339.631 95.1613 339.939 95.4833 340.321 95.698C340.704 95.9033 341.124 96.006 341.581 96.006ZM346.714 93.136C346.714 92.352 346.873 91.666 347.19 91.078C347.508 90.4807 347.942 90.0187 348.492 89.692C349.052 89.3653 349.673 89.202 350.354 89.202C351.026 89.202 351.61 89.3467 352.104 89.636C352.599 89.9253 352.968 90.2893 353.21 90.728V89.328H354.498V97H353.21V95.572C352.958 96.02 352.58 96.3933 352.076 96.692C351.582 96.9813 351.003 97.126 350.34 97.126C349.659 97.126 349.043 96.958 348.492 96.622C347.942 96.286 347.508 95.8147 347.19 95.208C346.873 94.6013 346.714 93.9107 346.714 93.136ZM353.21 93.15C353.21 92.5713 353.094 92.0673 352.86 91.638C352.627 91.2087 352.31 90.882 351.908 90.658C351.516 90.4247 351.082 90.308 350.606 90.308C350.13 90.308 349.696 90.42 349.304 90.644C348.912 90.868 348.6 91.1947 348.366 91.624C348.133 92.0533 348.016 92.5573 348.016 93.136C348.016 93.724 348.133 94.2373 348.366 94.676C348.6 95.1053 348.912 95.4367 349.304 95.67C349.696 95.894 350.13 96.006 350.606 96.006C351.082 96.006 351.516 95.894 351.908 95.67C352.31 95.4367 352.627 95.1053 352.86 94.676C353.094 94.2373 353.21 93.7287 353.21 93.15ZM356.175 93.136C356.175 92.352 356.334 91.666 356.651 91.078C356.969 90.4807 357.403 90.0187 357.953 89.692C358.513 89.3653 359.139 89.202 359.829 89.202C360.427 89.202 360.982 89.342 361.495 89.622C362.009 89.8927 362.401 90.252 362.671 90.7V86.64H363.959V97H362.671V95.558C362.419 96.0153 362.046 96.3933 361.551 96.692C361.057 96.9813 360.478 97.126 359.815 97.126C359.134 97.126 358.513 96.958 357.953 96.622C357.403 96.286 356.969 95.8147 356.651 95.208C356.334 94.6013 356.175 93.9107 356.175 93.136ZM362.671 93.15C362.671 92.5713 362.555 92.0673 362.321 91.638C362.088 91.2087 361.771 90.882 361.369 90.658C360.977 90.4247 360.543 90.308 360.067 90.308C359.591 90.308 359.157 90.42 358.765 90.644C358.373 90.868 358.061 91.1947 357.827 91.624C357.594 92.0533 357.477 92.5573 357.477 93.136C357.477 93.724 357.594 94.2373 357.827 94.676C358.061 95.1053 358.373 95.4367 358.765 95.67C359.157 95.894 359.591 96.006 360.067 96.006C360.543 96.006 360.977 95.894 361.369 95.67C361.771 95.4367 362.088 95.1053 362.321 94.676C362.555 94.2373 362.671 93.7287 362.671 93.15Z" fill="#F83C4D"/>
</svg>
