<svg width="22" height="20" viewBox="0 0 22 20" fill="none" xmlns="http://www.w3.org/2000/svg">
<path d="M14.553 19.75H7.448C5.243 19.75 4.02795 18.542 4.02795 16.35C4.02795 13.946 5.38802 11.139 9.22302 11.139H12.778C16.613 11.139 17.973 13.946 17.973 16.35C17.973 18.542 16.758 19.75 14.553 19.75ZM9.22302 12.639C5.79402 12.639 5.52795 15.479 5.52795 16.35C5.52795 17.7 6.085 18.25 7.448 18.25H14.553C15.916 18.25 16.473 17.699 16.473 16.35C16.473 15.479 16.206 12.639 12.778 12.639H9.22302ZM11.0081 9.76196C8.93706 9.76196 7.25195 8.07698 7.25195 6.00598C7.25195 3.93498 8.93706 2.25 11.0081 2.25C13.0791 2.25 14.765 3.93498 14.765 6.00598C14.765 8.07698 13.0791 9.76196 11.0081 9.76196ZM11.0081 3.75C9.76406 3.75 8.75195 4.76198 8.75195 6.00598C8.75195 7.24998 9.76406 8.26196 11.0081 8.26196C12.2521 8.26196 13.265 7.24998 13.265 6.00598C13.265 4.76198 12.2521 3.75 11.0081 3.75ZM21.75 10.65C21.75 8.67402 20.525 6.68005 17.79 6.68005H16.8199C16.4059 6.68005 16.0699 7.01605 16.0699 7.43005C16.0699 7.84405 16.4059 8.18005 16.8199 8.18005H17.79C20.011 8.18005 20.25 9.90702 20.25 10.65C20.25 11.514 19.9409 11.8199 19.0699 11.8199H18.71C18.296 11.8199 17.96 12.1559 17.96 12.5699C17.96 12.9839 18.296 13.3199 18.71 13.3199H19.0699C20.7729 13.3199 21.75 12.347 21.75 10.65ZM17.099 6.03503C18.45 5.76303 19.4301 4.55704 19.4301 3.17004C19.4301 1.56004 18.12 0.25 16.51 0.25C15.749 0.25 15.041 0.531969 14.517 1.04297C14.22 1.33197 14.2141 1.807 14.5031 2.104C14.7911 2.401 15.268 2.40704 15.564 2.11804C15.807 1.88104 16.143 1.75098 16.51 1.75098C17.293 1.75098 17.9301 2.38802 17.9301 3.17102C17.9301 3.84702 17.455 4.43404 16.802 4.56604C16.396 4.64804 16.133 5.04395 16.215 5.44995C16.287 5.80595 16.6 6.052 16.949 6.052C16.999 6.05 17.049 6.04503 17.099 6.03503ZM4.03003 12.5699C4.03003 12.1559 3.69403 11.8199 3.28003 11.8199H2.92896C2.05796 11.8199 1.74902 11.514 1.74902 10.65C1.74902 9.90702 1.98798 8.18005 4.20898 8.18005H5.19897C5.61297 8.18005 5.94897 7.84405 5.94897 7.43005C5.94897 7.01605 5.61297 6.68005 5.19897 6.68005H4.20898C1.28598 6.68005 0.249023 8.81902 0.249023 10.65C0.249023 12.347 1.22596 13.3199 2.92896 13.3199H3.28003C3.69403 13.3199 4.03003 12.9839 4.03003 12.5699ZM5.80603 5.448C5.88803 5.042 5.62499 4.64596 5.21899 4.56396C4.55899 4.43096 4.07996 3.84495 4.07996 3.16895C4.07996 2.38595 4.72201 1.74902 5.51001 1.74902C5.87001 1.74902 6.20894 1.88202 6.46594 2.12402C6.76694 2.40902 7.241 2.39499 7.526 2.09399C7.811 1.79299 7.79697 1.31806 7.49597 1.03406C6.96097 0.528058 6.25599 0.249023 5.51099 0.249023C3.89599 0.249023 2.58105 1.55895 2.58105 3.16895C2.58105 4.55495 3.56597 5.76006 4.92297 6.03406C4.97297 6.04406 5.02302 6.04895 5.07202 6.04895C5.42102 6.04995 5.73303 5.804 5.80603 5.448Z" fill="#F83C4D"/>
</svg>
