<svg width="18" height="22" viewBox="0 0 18 22" fill="none" xmlns="http://www.w3.org/2000/svg">
<path fill-rule="evenodd" clip-rule="evenodd" d="M8.53275 16.5008C7.55297 17.4254 6.00898 17.4083 5.0501 16.4494C4.07379 15.4731 4.07379 13.8902 5.0501 12.9139L12.8283 5.1357C13.0235 4.94044 13.3401 4.94044 13.5354 5.1357C13.7306 5.33097 13.7306 5.64755 13.5354 5.84281L5.75721 13.621C5.17142 14.2068 5.17142 15.1565 5.75721 15.7423C6.343 16.3281 7.29274 16.3281 7.87853 15.7423L15.6567 7.96413C17.0235 6.5973 17.0235 4.38122 15.6567 3.01438C14.2899 1.64755 12.0738 1.64755 10.707 3.01438L2.92878 10.7926C0.7809 12.9404 0.7809 16.4229 2.92878 18.5707C5.07667 20.7186 8.55908 20.7186 10.707 18.5707L17.0709 12.2068C17.2662 12.0115 17.5828 12.0115 17.778 12.2068C17.9733 12.402 17.9733 12.7186 17.778 12.9139L11.4141 19.2778C8.87566 21.8162 4.76009 21.8162 2.22168 19.2778C-0.29933 16.7568 -0.316612 12.6802 2.16983 10.1379L9.99985 2.30728C11.7572 0.549918 14.6065 0.549918 16.3638 2.30728C18.1212 4.06464 18.1212 6.91388 16.3638 8.67124L8.5335 16.5015L8.53275 16.5008Z" fill="#92929D"/>
</svg>
