<svg width="127" height="100" viewBox="0 0 127 100" fill="none" xmlns="http://www.w3.org/2000/svg">
<g clip-path="url(#clip0_162_5539)">
<g filter="url(#filter0_d_162_5539)">
<rect x="0.312012" width="125.963" height="100" rx="15" fill="#D0F6FF"/>
</g>
<path d="M44.3433 78.0098H42.1812L42.1694 77.1016H44.1323C44.4565 77.1016 44.7397 77.0469 44.9819 76.9375C45.2241 76.8281 45.4116 76.6719 45.5444 76.4688C45.6812 76.2617 45.7495 76.0156 45.7495 75.7305C45.7495 75.418 45.689 75.1641 45.5679 74.9688C45.4507 74.7695 45.269 74.625 45.0229 74.5352C44.7808 74.4414 44.4722 74.3945 44.0972 74.3945H42.4331V82H41.3022V73.4688H44.0972C44.5347 73.4688 44.9253 73.5137 45.269 73.6035C45.6128 73.6895 45.9038 73.8262 46.1421 74.0137C46.3843 74.1973 46.5679 74.4316 46.6929 74.7168C46.8179 75.002 46.8804 75.3438 46.8804 75.7422C46.8804 76.0938 46.7905 76.4121 46.6108 76.6973C46.4312 76.9785 46.1812 77.209 45.8608 77.3887C45.5444 77.5684 45.1733 77.6836 44.7476 77.7344L44.3433 78.0098ZM44.2905 82H41.7358L42.3745 81.0801H44.2905C44.6499 81.0801 44.9546 81.0176 45.2046 80.8926C45.4585 80.7676 45.6519 80.5918 45.7847 80.3652C45.9175 80.1348 45.9839 79.8633 45.9839 79.5508C45.9839 79.2344 45.9272 78.9609 45.814 78.7305C45.7007 78.5 45.5229 78.3223 45.2808 78.1973C45.0386 78.0723 44.7261 78.0098 44.3433 78.0098H42.7319L42.7437 77.1016H44.9468L45.187 77.4297C45.5972 77.4648 45.9448 77.582 46.23 77.7812C46.5151 77.9766 46.7319 78.2266 46.8804 78.5312C47.0327 78.8359 47.1089 79.1719 47.1089 79.5391C47.1089 80.0703 46.9917 80.5195 46.7573 80.8867C46.5269 81.25 46.2007 81.5273 45.7788 81.7188C45.3569 81.9062 44.8608 82 44.2905 82ZM52.353 80.916V77.6523C52.353 77.4023 52.3022 77.1855 52.2007 77.002C52.103 76.8145 51.9546 76.6699 51.7554 76.5684C51.5562 76.4668 51.3101 76.416 51.0171 76.416C50.7437 76.416 50.5034 76.4629 50.2964 76.5566C50.0933 76.6504 49.9331 76.7734 49.8159 76.9258C49.7026 77.0781 49.646 77.2422 49.646 77.418H48.562C48.562 77.1914 48.6206 76.9668 48.7378 76.7441C48.855 76.5215 49.0229 76.3203 49.2417 76.1406C49.4644 75.957 49.73 75.8125 50.0386 75.707C50.3511 75.5977 50.6987 75.543 51.0815 75.543C51.5425 75.543 51.9487 75.6211 52.3003 75.7773C52.6558 75.9336 52.9331 76.1699 53.1323 76.4863C53.3354 76.7988 53.437 77.1914 53.437 77.6641V80.6172C53.437 80.8281 53.4546 81.0527 53.4897 81.291C53.5288 81.5293 53.5854 81.7344 53.6597 81.9062V82H52.5288C52.4741 81.875 52.4312 81.709 52.3999 81.502C52.3687 81.291 52.353 81.0957 52.353 80.916ZM52.5405 78.1562L52.5522 78.918H51.4565C51.1479 78.918 50.8726 78.9434 50.6304 78.9941C50.3882 79.041 50.1851 79.1133 50.021 79.2109C49.8569 79.3086 49.7319 79.4316 49.646 79.5801C49.5601 79.7246 49.5171 79.8945 49.5171 80.0898C49.5171 80.2891 49.562 80.4707 49.6519 80.6348C49.7417 80.7988 49.8765 80.9297 50.0562 81.0273C50.2397 81.1211 50.4644 81.168 50.73 81.168C51.062 81.168 51.355 81.0977 51.6089 80.957C51.8628 80.8164 52.064 80.6445 52.2124 80.4414C52.3647 80.2383 52.4468 80.041 52.4585 79.8496L52.9214 80.3711C52.894 80.5352 52.8198 80.7168 52.6987 80.916C52.5776 81.1152 52.4155 81.3066 52.2124 81.4902C52.0132 81.6699 51.7749 81.8203 51.4976 81.9414C51.2241 82.0586 50.9155 82.1172 50.5718 82.1172C50.1421 82.1172 49.7651 82.0332 49.4409 81.8652C49.1206 81.6973 48.8706 81.4727 48.6909 81.1914C48.5151 80.9062 48.4272 80.5879 48.4272 80.2363C48.4272 79.8965 48.4937 79.5977 48.6265 79.3398C48.7593 79.0781 48.9507 78.8613 49.2007 78.6895C49.4507 78.5137 49.7515 78.3809 50.103 78.291C50.4546 78.2012 50.8472 78.1562 51.2808 78.1562H52.5405ZM58.8335 80.3184C58.8335 80.1621 58.7983 80.0176 58.728 79.8848C58.6616 79.748 58.5229 79.625 58.312 79.5156C58.105 79.4023 57.7925 79.3047 57.3745 79.2227C57.0229 79.1484 56.7046 79.0605 56.4194 78.959C56.1382 78.8574 55.8979 78.7344 55.6987 78.5898C55.5034 78.4453 55.353 78.2754 55.2476 78.0801C55.1421 77.8848 55.0894 77.6562 55.0894 77.3945C55.0894 77.1445 55.144 76.9082 55.2534 76.6855C55.3667 76.4629 55.5249 76.2656 55.728 76.0938C55.9351 75.9219 56.1831 75.7871 56.4722 75.6895C56.7612 75.5918 57.0835 75.543 57.439 75.543C57.9468 75.543 58.3804 75.6328 58.7397 75.8125C59.0991 75.9922 59.3745 76.2324 59.5659 76.5332C59.7573 76.8301 59.853 77.1602 59.853 77.5234H58.769C58.769 77.3477 58.7163 77.1777 58.6108 77.0137C58.5093 76.8457 58.3589 76.707 58.1597 76.5977C57.9644 76.4883 57.7241 76.4336 57.439 76.4336C57.1382 76.4336 56.894 76.4805 56.7065 76.5742C56.5229 76.6641 56.3882 76.7793 56.3022 76.9199C56.2202 77.0605 56.1792 77.209 56.1792 77.3652C56.1792 77.4824 56.1987 77.5879 56.2378 77.6816C56.2808 77.7715 56.355 77.8555 56.4604 77.9336C56.5659 78.0078 56.7144 78.0781 56.9058 78.1445C57.0972 78.2109 57.3413 78.2773 57.6382 78.3438C58.1577 78.4609 58.5854 78.6016 58.9214 78.7656C59.2573 78.9297 59.5073 79.1309 59.6714 79.3691C59.8354 79.6074 59.9175 79.8965 59.9175 80.2363C59.9175 80.5137 59.8589 80.7676 59.7417 80.998C59.6284 81.2285 59.4624 81.4277 59.2437 81.5957C59.0288 81.7598 58.771 81.8887 58.4702 81.9824C58.1733 82.0723 57.8394 82.1172 57.4683 82.1172C56.9097 82.1172 56.437 82.0176 56.0503 81.8184C55.6636 81.6191 55.3706 81.3613 55.1714 81.0449C54.9722 80.7285 54.8726 80.3945 54.8726 80.043H55.9624C55.978 80.3398 56.064 80.5762 56.2202 80.752C56.3765 80.9238 56.5679 81.0469 56.7944 81.1211C57.021 81.1914 57.2456 81.2266 57.4683 81.2266C57.7651 81.2266 58.0132 81.1875 58.2124 81.1094C58.4155 81.0312 58.5698 80.9238 58.6753 80.7871C58.7808 80.6504 58.8335 80.4941 58.8335 80.3184ZM63.9722 82.1172C63.5308 82.1172 63.1304 82.043 62.771 81.8945C62.4155 81.7422 62.1089 81.5293 61.8511 81.2559C61.5972 80.9824 61.4019 80.6582 61.2651 80.2832C61.1284 79.9082 61.0601 79.498 61.0601 79.0527V78.8066C61.0601 78.291 61.1362 77.832 61.2886 77.4297C61.4409 77.0234 61.6479 76.6797 61.9097 76.3984C62.1714 76.1172 62.4683 75.9043 62.8003 75.7598C63.1323 75.6152 63.4761 75.543 63.8315 75.543C64.2847 75.543 64.6753 75.6211 65.0034 75.7773C65.3354 75.9336 65.6069 76.1523 65.8179 76.4336C66.0288 76.7109 66.1851 77.0391 66.2866 77.418C66.3882 77.793 66.439 78.2031 66.439 78.6484V79.1348H61.7046V78.25H65.355V78.168C65.3394 77.8867 65.2808 77.6133 65.1792 77.3477C65.0815 77.082 64.9253 76.8633 64.7104 76.6914C64.4956 76.5195 64.2026 76.4336 63.8315 76.4336C63.5854 76.4336 63.3589 76.4863 63.1519 76.5918C62.9448 76.6934 62.7671 76.8457 62.6187 77.0488C62.4702 77.252 62.355 77.5 62.2729 77.793C62.1909 78.0859 62.1499 78.4238 62.1499 78.8066V79.0527C62.1499 79.3535 62.1909 79.6367 62.2729 79.9023C62.3589 80.1641 62.4819 80.3945 62.6421 80.5938C62.8062 80.793 63.0034 80.9492 63.2339 81.0625C63.4683 81.1758 63.7339 81.2324 64.0308 81.2324C64.4136 81.2324 64.7378 81.1543 65.0034 80.998C65.269 80.8418 65.5015 80.6328 65.7007 80.3711L66.3569 80.8926C66.2202 81.0996 66.0464 81.2969 65.8354 81.4844C65.6245 81.6719 65.3647 81.8242 65.0562 81.9414C64.7515 82.0586 64.3901 82.1172 63.9722 82.1172ZM67.6987 73H68.7886V80.7695L68.6948 82H67.6987V73ZM73.0718 78.7773V78.9004C73.0718 79.3613 73.0171 79.7891 72.9077 80.1836C72.7983 80.5742 72.6382 80.9141 72.4272 81.2031C72.2163 81.4922 71.9585 81.7168 71.6538 81.877C71.3491 82.0371 70.9995 82.1172 70.605 82.1172C70.2026 82.1172 69.8491 82.0488 69.5444 81.9121C69.2437 81.7715 68.9897 81.5703 68.7827 81.3086C68.5757 81.0469 68.4097 80.7305 68.2847 80.3594C68.1636 79.9883 68.0796 79.5703 68.0327 79.1055V78.5664C68.0796 78.0977 68.1636 77.6777 68.2847 77.3066C68.4097 76.9355 68.5757 76.6191 68.7827 76.3574C68.9897 76.0918 69.2437 75.8906 69.5444 75.7539C69.8452 75.6133 70.1948 75.543 70.5933 75.543C70.9917 75.543 71.3452 75.6211 71.6538 75.7773C71.9624 75.9297 72.2202 76.1484 72.4272 76.4336C72.6382 76.7188 72.7983 77.0605 72.9077 77.459C73.0171 77.8535 73.0718 78.293 73.0718 78.7773ZM71.9819 78.9004V78.7773C71.9819 78.4609 71.9526 78.1641 71.894 77.8867C71.8354 77.6055 71.7417 77.3594 71.6128 77.1484C71.4839 76.9336 71.314 76.7656 71.103 76.6445C70.8921 76.5195 70.6323 76.457 70.3237 76.457C70.0503 76.457 69.812 76.5039 69.6089 76.5977C69.4097 76.6914 69.2397 76.8184 69.0991 76.9785C68.9585 77.1348 68.8433 77.3145 68.7534 77.5176C68.6675 77.7168 68.603 77.9238 68.5601 78.1387V79.5508C68.6226 79.8242 68.7241 80.0879 68.8647 80.3418C69.0093 80.5918 69.2007 80.7969 69.439 80.957C69.6812 81.1172 69.98 81.1973 70.3354 81.1973C70.6284 81.1973 70.8784 81.1387 71.0854 81.0215C71.2964 80.9004 71.4663 80.7344 71.5952 80.5234C71.728 80.3125 71.8257 80.0684 71.8882 79.791C71.9507 79.5137 71.9819 79.2168 71.9819 78.9004ZM78.1812 80.916V77.6523C78.1812 77.4023 78.1304 77.1855 78.0288 77.002C77.9312 76.8145 77.7827 76.6699 77.5835 76.5684C77.3843 76.4668 77.1382 76.416 76.8452 76.416C76.5718 76.416 76.3315 76.4629 76.1245 76.5566C75.9214 76.6504 75.7612 76.7734 75.644 76.9258C75.5308 77.0781 75.4741 77.2422 75.4741 77.418H74.3901C74.3901 77.1914 74.4487 76.9668 74.5659 76.7441C74.6831 76.5215 74.8511 76.3203 75.0698 76.1406C75.2925 75.957 75.5581 75.8125 75.8667 75.707C76.1792 75.5977 76.5269 75.543 76.9097 75.543C77.3706 75.543 77.7769 75.6211 78.1284 75.7773C78.4839 75.9336 78.7612 76.1699 78.9604 76.4863C79.1636 76.7988 79.2651 77.1914 79.2651 77.6641V80.6172C79.2651 80.8281 79.2827 81.0527 79.3179 81.291C79.3569 81.5293 79.4136 81.7344 79.4878 81.9062V82H78.3569C78.3022 81.875 78.2593 81.709 78.228 81.502C78.1968 81.291 78.1812 81.0957 78.1812 80.916ZM78.3687 78.1562L78.3804 78.918H77.2847C76.9761 78.918 76.7007 78.9434 76.4585 78.9941C76.2163 79.041 76.0132 79.1133 75.8491 79.2109C75.6851 79.3086 75.5601 79.4316 75.4741 79.5801C75.3882 79.7246 75.3452 79.8945 75.3452 80.0898C75.3452 80.2891 75.3901 80.4707 75.48 80.6348C75.5698 80.7988 75.7046 80.9297 75.8843 81.0273C76.0679 81.1211 76.2925 81.168 76.5581 81.168C76.8901 81.168 77.1831 81.0977 77.437 80.957C77.6909 80.8164 77.8921 80.6445 78.0405 80.4414C78.1929 80.2383 78.2749 80.041 78.2866 79.8496L78.7495 80.3711C78.7222 80.5352 78.6479 80.7168 78.5269 80.916C78.4058 81.1152 78.2437 81.3066 78.0405 81.4902C77.8413 81.6699 77.603 81.8203 77.3257 81.9414C77.0522 82.0586 76.7437 82.1172 76.3999 82.1172C75.9702 82.1172 75.5933 82.0332 75.269 81.8652C74.9487 81.6973 74.6987 81.4727 74.519 81.1914C74.3433 80.9062 74.2554 80.5879 74.2554 80.2363C74.2554 79.8965 74.3218 79.5977 74.4546 79.3398C74.5874 79.0781 74.7788 78.8613 75.0288 78.6895C75.2788 78.5137 75.5796 78.3809 75.9312 78.291C76.2827 78.2012 76.6753 78.1562 77.1089 78.1562H78.3687ZM82.1479 73V82H81.0581V73H82.1479ZM85.0659 73V82H83.9761V73H85.0659Z" fill="#44444F"/>
<path d="M76.8121 39.1252C75.7621 39.1252 74.7121 39.0052 73.6921 38.7952C73.0921 38.6602 72.7021 38.0602 72.8371 37.4602C72.9721 36.8602 73.572 36.4702 74.172 36.6052C75.507 36.8902 76.887 36.9652 78.252 36.8002C77.667 29.4802 71.8471 23.6602 64.5271 23.0752C64.4671 23.5552 64.4371 24.0352 64.4371 24.5152C64.4371 25.5352 64.5571 26.5402 64.8121 27.5152C64.9621 28.1152 64.6021 28.7302 63.9871 28.8802C63.8971 28.9102 63.807 28.9102 63.717 28.9102C63.207 28.9102 62.7571 28.5652 62.6221 28.0552C62.3371 26.9002 62.1871 25.7152 62.1871 24.5152C62.1871 24.0352 62.217 23.5552 62.262 23.0752C54.822 23.6002 48.8821 29.5402 48.3721 36.9802C49.9021 36.8302 51.447 36.9052 52.932 37.2352C53.532 37.3702 53.922 37.9702 53.787 38.5702C53.652 39.1702 53.0521 39.5602 52.4521 39.4252C51.1171 39.1402 49.7371 39.0652 48.3721 39.2302C48.9571 46.5502 54.7771 52.3702 62.0971 52.9552C62.1571 52.4752 62.1871 51.9952 62.1871 51.5152C62.1871 50.4952 62.0671 49.4902 61.8121 48.5152C61.6621 47.9152 62.022 47.3002 62.637 47.1502C63.237 47.0002 63.852 47.3602 64.002 47.9752C64.287 49.1302 64.4371 50.3152 64.4371 51.5152C64.4371 51.9952 64.4071 52.4752 64.3621 52.9552C71.8021 52.4302 77.742 46.4902 78.252 39.0502C77.772 39.0952 77.2921 39.1402 76.8121 39.1402V39.1252ZM61.7221 45.0652C61.5271 45.1852 61.3171 45.2452 61.1071 45.2452C60.7471 45.2452 60.387 45.0652 60.162 44.7352C59.697 44.0152 59.1571 43.3552 58.5421 42.7402L58.422 42.6202L58.3921 42.5902C57.7321 41.9602 57.0121 41.4052 56.2471 40.9252C55.7221 40.5952 55.5571 39.9052 55.8721 39.3802C56.2021 38.8552 56.8921 38.6902 57.4171 39.0052C58.3321 39.5752 59.2021 40.2352 59.9821 40.9852C59.9821 40.9852 59.997 41.0002 60.012 41.0152L60.1321 41.1352C60.8521 41.8552 61.482 42.6502 62.037 43.4902C62.382 44.0152 62.232 44.7052 61.707 45.0502L61.7221 45.0652ZM70.7371 36.5902C70.5271 36.9352 70.1521 37.1302 69.7771 37.1302C69.5821 37.1302 69.3721 37.0702 69.1921 36.9652C68.2771 36.3952 67.407 35.7352 66.627 34.9852C66.627 34.9852 66.6121 34.9702 66.5971 34.9552L66.477 34.8352C65.757 34.1152 65.1271 33.3202 64.5721 32.4802C64.2271 31.9552 64.3771 31.2652 64.9021 30.9202C65.4271 30.5752 66.1171 30.7252 66.4621 31.2502C66.9271 31.9702 67.467 32.6302 68.082 33.2452L68.2021 33.3652L68.2321 33.3952C68.8921 34.0252 69.612 34.5802 70.377 35.0602C70.902 35.3902 71.067 36.0802 70.752 36.6052L70.7371 36.5902Z" fill="#27CEF8"/>
</g>
<defs>
<filter id="filter0_d_162_5539" x="-14.688" y="-13" width="155.963" height="130" filterUnits="userSpaceOnUse" color-interpolation-filters="sRGB">
<feFlood flood-opacity="0" result="BackgroundImageFix"/>
<feColorMatrix in="SourceAlpha" type="matrix" values="0 0 0 0 0 0 0 0 0 0 0 0 0 0 0 0 0 0 127 0" result="hardAlpha"/>
<feOffset dy="2"/>
<feGaussianBlur stdDeviation="7.5"/>
<feColorMatrix type="matrix" values="0 0 0 0 0.70967 0 0 0 0 0.70967 0 0 0 0 0.745556 0 0 0 0.15 0"/>
<feBlend mode="normal" in2="BackgroundImageFix" result="effect1_dropShadow_162_5539"/>
<feBlend mode="normal" in="SourceGraphic" in2="effect1_dropShadow_162_5539" result="shape"/>
</filter>
<clipPath id="clip0_162_5539">
<rect width="125.963" height="100" fill="white" transform="translate(0.312012)"/>
</clipPath>
</defs>
</svg>
