<svg width="25" height="24" viewBox="0 0 25 24" fill="none" xmlns="http://www.w3.org/2000/svg">
<path fill-rule="evenodd" clip-rule="evenodd" d="M12.7539 17.5526L8.30544 20.8173C7.29869 21.5562 5.85003 20.866 5.84795 19.6512L5.84413 17.4278C3.77287 16.9496 2.23999 15.1543 2.23999 13.0214V7.41114C2.23999 4.90941 4.34603 2.87988 6.94587 2.87988H17.5341C20.134 2.87988 22.24 4.90941 22.24 7.41114V13.0214C22.24 15.5231 20.134 17.5526 17.5341 17.5526H12.7539ZM7.84638 18.7375L11.8081 15.8299C11.9825 15.702 12.196 15.6326 12.4155 15.6326H17.5341C19.0277 15.6326 20.24 14.4643 20.24 13.0214V7.41114C20.24 5.96816 19.0277 4.79988 17.5341 4.79988H6.94587C5.45231 4.79988 4.23999 5.96816 4.23999 7.41114V13.0214C4.23999 14.4372 5.40905 15.5931 6.87012 15.6316C7.41088 15.6459 7.8418 16.0704 7.84269 16.5897L7.84638 18.7375Z" fill="#92929D"/>
</svg>
