<svg width="54" height="54" viewBox="0 0 54 54" fill="none" xmlns="http://www.w3.org/2000/svg">
<rect width="54" height="54" rx="27" fill="#F5F7FF"/>
<path d="M31.8301 30.6402C32.5001 30.2002 33.3801 30.6802 33.3801 31.4802V32.7702C33.3801 34.0402 32.3901 35.4002 31.2001 35.8002L28.0101 36.8602C27.4501 37.0502 26.5401 37.0502 25.9901 36.8602L22.8001 35.8002C21.6001 35.4002 20.6201 34.0402 20.6201 32.7702V31.4702C20.6201 30.6802 21.5001 30.2002 22.1601 30.6302L24.2201 31.9702C25.0101 32.5002 26.0101 32.7602 27.0101 32.7602C28.0101 32.7602 29.0101 32.5002 29.8001 31.9702L31.8301 30.6402Z" fill="#F83C4D"/>
<path d="M34.98 21.4601L28.99 17.5301C27.91 16.8201 26.13 16.8201 25.05 17.5301L19.03 21.4601C17.1 22.7101 17.1 25.5401 19.03 26.8001L20.63 27.8401L25.05 30.7201C26.13 31.4301 27.91 31.4301 28.99 30.7201L33.38 27.8401L34.75 26.9401V30.0001C34.75 30.4101 35.09 30.7501 35.5 30.7501C35.91 30.7501 36.25 30.4101 36.25 30.0001V25.0801C36.65 23.7901 36.24 22.2901 34.98 21.4601Z" fill="#F83C4D"/>
</svg>
