<svg width="16" height="16" viewBox="0 0 16 16" fill="none" xmlns="http://www.w3.org/2000/svg">
<path d="M15.117 16C15.6046 16 16 15.6046 16 15.1169V0.88307C16 0.395283 15.6047 0 15.117 0H0.883077C0.395286 0 0 0.395283 0 0.88307V15.1169C0 15.6045 0.395224 16 0.883077 16H15.117Z" fill="#3C5A99"/>
<path d="M11.0397 16V9.8039H13.1194L13.4308 7.38918H11.0397V5.84753C11.0397 5.14841 11.2338 4.67198 12.2363 4.67198L13.515 4.67143V2.51168C13.2939 2.48225 12.5348 2.4165 11.6517 2.4165C9.80818 2.4165 8.54602 3.54182 8.54602 5.60838V7.38918H6.46094V9.8039H8.54602V16H11.0397Z" fill="white"/>
</svg>
