<svg width="127" height="100" viewBox="0 0 127 100" fill="none" xmlns="http://www.w3.org/2000/svg">
<g clip-path="url(#clip0_162_5545)">
<g filter="url(#filter0_d_162_5545)">
<rect x="0.385254" width="125.963" height="100" rx="15" fill="#D0F6FF"/>
</g>
<path d="M43.5063 73.4688V82H42.3755V73.4688H43.5063ZM47.0806 77.3066V78.2324H43.2603V77.3066H47.0806ZM47.6606 73.4688V74.3945H43.2603V73.4688H47.6606ZM48.4282 78.9004V78.7656C48.4282 78.3086 48.4946 77.8848 48.6274 77.4941C48.7603 77.0996 48.9517 76.7578 49.2017 76.4688C49.4517 76.1758 49.7544 75.9492 50.1099 75.7891C50.4653 75.625 50.8638 75.543 51.3052 75.543C51.7505 75.543 52.1509 75.625 52.5063 75.7891C52.8657 75.9492 53.1704 76.1758 53.4204 76.4688C53.6743 76.7578 53.8677 77.0996 54.0005 77.4941C54.1333 77.8848 54.1997 78.3086 54.1997 78.7656V78.9004C54.1997 79.3574 54.1333 79.7812 54.0005 80.1719C53.8677 80.5625 53.6743 80.9043 53.4204 81.1973C53.1704 81.4863 52.8677 81.7129 52.5122 81.877C52.1606 82.0371 51.7622 82.1172 51.3169 82.1172C50.8716 82.1172 50.4712 82.0371 50.1157 81.877C49.7603 81.7129 49.4556 81.4863 49.2017 81.1973C48.9517 80.9043 48.7603 80.5625 48.6274 80.1719C48.4946 79.7812 48.4282 79.3574 48.4282 78.9004ZM49.5122 78.7656V78.9004C49.5122 79.2168 49.5493 79.5156 49.6235 79.7969C49.6978 80.0742 49.8091 80.3203 49.9575 80.5352C50.1099 80.75 50.2993 80.9199 50.5259 81.0449C50.7524 81.166 51.0161 81.2266 51.3169 81.2266C51.6138 81.2266 51.8735 81.166 52.0962 81.0449C52.3228 80.9199 52.5103 80.75 52.6587 80.5352C52.8071 80.3203 52.9185 80.0742 52.9927 79.7969C53.0708 79.5156 53.1099 79.2168 53.1099 78.9004V78.7656C53.1099 78.4531 53.0708 78.1582 52.9927 77.8809C52.9185 77.5996 52.8052 77.3516 52.6528 77.1367C52.5044 76.918 52.3169 76.7461 52.0903 76.6211C51.8677 76.4961 51.606 76.4336 51.3052 76.4336C51.0083 76.4336 50.7466 76.4961 50.52 76.6211C50.2974 76.7461 50.1099 76.918 49.9575 77.1367C49.8091 77.3516 49.6978 77.5996 49.6235 77.8809C49.5493 78.1582 49.5122 78.4531 49.5122 78.7656ZM55.272 78.9004V78.7656C55.272 78.3086 55.3384 77.8848 55.4712 77.4941C55.604 77.0996 55.7954 76.7578 56.0454 76.4688C56.2954 76.1758 56.5981 75.9492 56.9536 75.7891C57.3091 75.625 57.7075 75.543 58.1489 75.543C58.5942 75.543 58.9946 75.625 59.3501 75.7891C59.7095 75.9492 60.0142 76.1758 60.2642 76.4688C60.5181 76.7578 60.7114 77.0996 60.8442 77.4941C60.9771 77.8848 61.0435 78.3086 61.0435 78.7656V78.9004C61.0435 79.3574 60.9771 79.7812 60.8442 80.1719C60.7114 80.5625 60.5181 80.9043 60.2642 81.1973C60.0142 81.4863 59.7114 81.7129 59.356 81.877C59.0044 82.0371 58.606 82.1172 58.1606 82.1172C57.7153 82.1172 57.3149 82.0371 56.9595 81.877C56.604 81.7129 56.2993 81.4863 56.0454 81.1973C55.7954 80.9043 55.604 80.5625 55.4712 80.1719C55.3384 79.7812 55.272 79.3574 55.272 78.9004ZM56.356 78.7656V78.9004C56.356 79.2168 56.3931 79.5156 56.4673 79.7969C56.5415 80.0742 56.6528 80.3203 56.8013 80.5352C56.9536 80.75 57.1431 80.9199 57.3696 81.0449C57.5962 81.166 57.8599 81.2266 58.1606 81.2266C58.4575 81.2266 58.7173 81.166 58.9399 81.0449C59.1665 80.9199 59.354 80.75 59.5024 80.5352C59.6509 80.3203 59.7622 80.0742 59.8364 79.7969C59.9146 79.5156 59.9536 79.2168 59.9536 78.9004V78.7656C59.9536 78.4531 59.9146 78.1582 59.8364 77.8809C59.7622 77.5996 59.6489 77.3516 59.4966 77.1367C59.3481 76.918 59.1606 76.7461 58.9341 76.6211C58.7114 76.4961 58.4497 76.4336 58.1489 76.4336C57.8521 76.4336 57.5903 76.4961 57.3638 76.6211C57.1411 76.7461 56.9536 76.918 56.8013 77.1367C56.6528 77.3516 56.5415 77.5996 56.4673 77.8809C56.3931 78.1582 56.356 78.4531 56.356 78.7656ZM65.0571 75.6602V76.4922H61.6294V75.6602H65.0571ZM62.7896 74.1191H63.8735V80.4297C63.8735 80.6445 63.9067 80.8066 63.9731 80.916C64.0396 81.0254 64.1255 81.0977 64.231 81.1328C64.3364 81.168 64.4497 81.1855 64.5708 81.1855C64.6606 81.1855 64.7544 81.1777 64.8521 81.1621C64.9536 81.1426 65.0298 81.127 65.0806 81.1152L65.0864 82C65.0005 82.0273 64.8872 82.0527 64.7466 82.0762C64.6099 82.1035 64.4438 82.1172 64.2485 82.1172C63.9829 82.1172 63.7388 82.0645 63.5161 81.959C63.2935 81.8535 63.1157 81.6777 62.9829 81.4316C62.854 81.1816 62.7896 80.8457 62.7896 80.4238V74.1191ZM66.3228 73H67.4126V80.7695L67.3188 82H66.3228V73ZM71.6958 78.7773V78.9004C71.6958 79.3613 71.6411 79.7891 71.5317 80.1836C71.4224 80.5742 71.2622 80.9141 71.0513 81.2031C70.8403 81.4922 70.5825 81.7168 70.2778 81.877C69.9731 82.0371 69.6235 82.1172 69.229 82.1172C68.8267 82.1172 68.4731 82.0488 68.1685 81.9121C67.8677 81.7715 67.6138 81.5703 67.4067 81.3086C67.1997 81.0469 67.0337 80.7305 66.9087 80.3594C66.7876 79.9883 66.7036 79.5703 66.6567 79.1055V78.5664C66.7036 78.0977 66.7876 77.6777 66.9087 77.3066C67.0337 76.9355 67.1997 76.6191 67.4067 76.3574C67.6138 76.0918 67.8677 75.8906 68.1685 75.7539C68.4692 75.6133 68.8188 75.543 69.2173 75.543C69.6157 75.543 69.9692 75.6211 70.2778 75.7773C70.5864 75.9297 70.8442 76.1484 71.0513 76.4336C71.2622 76.7188 71.4224 77.0605 71.5317 77.459C71.6411 77.8535 71.6958 78.293 71.6958 78.7773ZM70.606 78.9004V78.7773C70.606 78.4609 70.5767 78.1641 70.5181 77.8867C70.4595 77.6055 70.3657 77.3594 70.2368 77.1484C70.1079 76.9336 69.938 76.7656 69.7271 76.6445C69.5161 76.5195 69.2563 76.457 68.9478 76.457C68.6743 76.457 68.436 76.5039 68.2329 76.5977C68.0337 76.6914 67.8638 76.8184 67.7231 76.9785C67.5825 77.1348 67.4673 77.3145 67.3774 77.5176C67.2915 77.7168 67.2271 77.9238 67.1841 78.1387V79.5508C67.2466 79.8242 67.3481 80.0879 67.4888 80.3418C67.6333 80.5918 67.8247 80.7969 68.063 80.957C68.3052 81.1172 68.604 81.1973 68.9595 81.1973C69.2524 81.1973 69.5024 81.1387 69.7095 81.0215C69.9204 80.9004 70.0903 80.7344 70.2192 80.5234C70.3521 80.3125 70.4497 80.0684 70.5122 79.791C70.5747 79.5137 70.606 79.2168 70.606 78.9004ZM76.8052 80.916V77.6523C76.8052 77.4023 76.7544 77.1855 76.6528 77.002C76.5552 76.8145 76.4067 76.6699 76.2075 76.5684C76.0083 76.4668 75.7622 76.416 75.4692 76.416C75.1958 76.416 74.9556 76.4629 74.7485 76.5566C74.5454 76.6504 74.3853 76.7734 74.2681 76.9258C74.1548 77.0781 74.0981 77.2422 74.0981 77.418H73.0142C73.0142 77.1914 73.0728 76.9668 73.1899 76.7441C73.3071 76.5215 73.4751 76.3203 73.6938 76.1406C73.9165 75.957 74.1821 75.8125 74.4907 75.707C74.8032 75.5977 75.1509 75.543 75.5337 75.543C75.9946 75.543 76.4009 75.6211 76.7524 75.7773C77.1079 75.9336 77.3853 76.1699 77.5845 76.4863C77.7876 76.7988 77.8892 77.1914 77.8892 77.6641V80.6172C77.8892 80.8281 77.9067 81.0527 77.9419 81.291C77.981 81.5293 78.0376 81.7344 78.1118 81.9062V82H76.981C76.9263 81.875 76.8833 81.709 76.8521 81.502C76.8208 81.291 76.8052 81.0957 76.8052 80.916ZM76.9927 78.1562L77.0044 78.918H75.9087C75.6001 78.918 75.3247 78.9434 75.0825 78.9941C74.8403 79.041 74.6372 79.1133 74.4731 79.2109C74.3091 79.3086 74.1841 79.4316 74.0981 79.5801C74.0122 79.7246 73.9692 79.8945 73.9692 80.0898C73.9692 80.2891 74.0142 80.4707 74.104 80.6348C74.1938 80.7988 74.3286 80.9297 74.5083 81.0273C74.6919 81.1211 74.9165 81.168 75.1821 81.168C75.5142 81.168 75.8071 81.0977 76.061 80.957C76.3149 80.8164 76.5161 80.6445 76.6646 80.4414C76.8169 80.2383 76.8989 80.041 76.9106 79.8496L77.3735 80.3711C77.3462 80.5352 77.272 80.7168 77.1509 80.916C77.0298 81.1152 76.8677 81.3066 76.6646 81.4902C76.4653 81.6699 76.2271 81.8203 75.9497 81.9414C75.6763 82.0586 75.3677 82.1172 75.0239 82.1172C74.5942 82.1172 74.2173 82.0332 73.8931 81.8652C73.5728 81.6973 73.3228 81.4727 73.1431 81.1914C72.9673 80.9062 72.8794 80.5879 72.8794 80.2363C72.8794 79.8965 72.9458 79.5977 73.0786 79.3398C73.2114 79.0781 73.4028 78.8613 73.6528 78.6895C73.9028 78.5137 74.2036 78.3809 74.5552 78.291C74.9067 78.2012 75.2993 78.1562 75.7329 78.1562H76.9927ZM80.772 73V82H79.6821V73H80.772ZM83.6899 73V82H82.6001V73H83.6899Z" fill="#44444F"/>
<path d="M77.6352 40.16C77.3952 39.95 77.0802 39.845 76.7652 39.875L69.4902 40.61L67.2102 34.52L73.9602 33.905C74.4402 33.86 74.7702 33.38 74.6052 32.93C72.7002 27.65 67.4052 23.99 61.3602 24.575C55.1952 25.175 50.2302 30.365 49.8852 36.545C49.6602 40.625 51.3552 44.345 54.1752 46.82C54.3102 46.94 54.5052 47.015 54.6852 47.015H57.4902C59.2602 47.015 60.8652 48.005 61.6602 49.595C61.7802 49.85 62.0502 50.015 62.3352 50.015H66.7602C67.2852 50.015 67.6602 49.49 67.4652 48.995L65.2002 43.325L67.9902 43.04L70.2252 48.995C71.0502 51.185 73.1652 52.64 75.4902 52.64H76.8702C77.4852 52.64 77.9952 52.13 77.9952 51.515V41.015C77.9952 40.7 77.8602 40.4 77.6202 40.175L77.6352 40.16ZM58.9152 44C58.0902 44 57.4152 43.325 57.4152 42.5C57.4152 41.675 58.0752 41 58.9002 41H58.9152C59.7402 41 60.4152 41.675 60.4152 42.5C60.4152 43.325 59.7402 44 58.9152 44ZM64.6602 41.09C64.5552 41.09 64.4652 41.15 64.3602 41.18L63.0102 37.79C62.4552 36.395 63.4002 34.85 64.9002 34.715H64.9602C64.9602 34.805 64.9602 34.91 65.0052 35.015L67.1952 40.835L64.6602 41.09ZM75.7602 42.245V44.48L71.1252 44.945L70.3152 42.8L75.7602 42.26V42.245ZM75.5052 50.375C74.1102 50.375 72.8352 49.49 72.3402 48.185L71.9352 47.12L75.7452 46.745V50.375H75.4902H75.5052Z" fill="#27CEF8"/>
</g>
<defs>
<filter id="filter0_d_162_5545" x="-14.6147" y="-13" width="155.963" height="130" filterUnits="userSpaceOnUse" color-interpolation-filters="sRGB">
<feFlood flood-opacity="0" result="BackgroundImageFix"/>
<feColorMatrix in="SourceAlpha" type="matrix" values="0 0 0 0 0 0 0 0 0 0 0 0 0 0 0 0 0 0 127 0" result="hardAlpha"/>
<feOffset dy="2"/>
<feGaussianBlur stdDeviation="7.5"/>
<feColorMatrix type="matrix" values="0 0 0 0 0.70967 0 0 0 0 0.70967 0 0 0 0 0.745556 0 0 0 0.15 0"/>
<feBlend mode="normal" in2="BackgroundImageFix" result="effect1_dropShadow_162_5545"/>
<feBlend mode="normal" in="SourceGraphic" in2="effect1_dropShadow_162_5545" result="shape"/>
</filter>
<clipPath id="clip0_162_5545">
<rect width="125.963" height="100" fill="white" transform="translate(0.385254)"/>
</clipPath>
</defs>
</svg>
