<svg width="127" height="100" viewBox="0 0 127 100" fill="none" xmlns="http://www.w3.org/2000/svg">
<g clip-path="url(#clip0_162_5533)">
<g filter="url(#filter0_d_162_5533)">
<rect x="0.316406" width="125.963" height="100" rx="15" fill="#D0F6FF"/>
</g>
<path d="M49.8789 77.1367V78.0566H45.2617V77.1367H49.8789ZM45.4375 73.4688V82H44.3066V73.4688H45.4375ZM50.8633 73.4688V82H49.7383V73.4688H50.8633ZM52.4219 78.9004V78.7656C52.4219 78.3086 52.4883 77.8848 52.6211 77.4941C52.7539 77.0996 52.9453 76.7578 53.1953 76.4688C53.4453 76.1758 53.748 75.9492 54.1035 75.7891C54.459 75.625 54.8574 75.543 55.2988 75.543C55.7441 75.543 56.1445 75.625 56.5 75.7891C56.8594 75.9492 57.1641 76.1758 57.4141 76.4688C57.668 76.7578 57.8613 77.0996 57.9941 77.4941C58.127 77.8848 58.1934 78.3086 58.1934 78.7656V78.9004C58.1934 79.3574 58.127 79.7812 57.9941 80.1719C57.8613 80.5625 57.668 80.9043 57.4141 81.1973C57.1641 81.4863 56.8613 81.7129 56.5059 81.877C56.1543 82.0371 55.7559 82.1172 55.3105 82.1172C54.8652 82.1172 54.4648 82.0371 54.1094 81.877C53.7539 81.7129 53.4492 81.4863 53.1953 81.1973C52.9453 80.9043 52.7539 80.5625 52.6211 80.1719C52.4883 79.7812 52.4219 79.3574 52.4219 78.9004ZM53.5059 78.7656V78.9004C53.5059 79.2168 53.543 79.5156 53.6172 79.7969C53.6914 80.0742 53.8027 80.3203 53.9512 80.5352C54.1035 80.75 54.293 80.9199 54.5195 81.0449C54.7461 81.166 55.0098 81.2266 55.3105 81.2266C55.6074 81.2266 55.8672 81.166 56.0898 81.0449C56.3164 80.9199 56.5039 80.75 56.6523 80.5352C56.8008 80.3203 56.9121 80.0742 56.9863 79.7969C57.0645 79.5156 57.1035 79.2168 57.1035 78.9004V78.7656C57.1035 78.4531 57.0645 78.1582 56.9863 77.8809C56.9121 77.5996 56.7988 77.3516 56.6465 77.1367C56.498 76.918 56.3105 76.7461 56.084 76.6211C55.8613 76.4961 55.5996 76.4336 55.2988 76.4336C55.002 76.4336 54.7402 76.4961 54.5137 76.6211C54.291 76.7461 54.1035 76.918 53.9512 77.1367C53.8027 77.3516 53.6914 77.5996 53.6172 77.8809C53.543 78.1582 53.5059 78.4531 53.5059 78.7656ZM62.0898 81.2266C62.3477 81.2266 62.5859 81.1738 62.8047 81.0684C63.0234 80.9629 63.2031 80.8184 63.3438 80.6348C63.4844 80.4473 63.5645 80.2344 63.584 79.9961H64.6152C64.5957 80.3711 64.4688 80.7207 64.2344 81.0449C64.0039 81.3652 63.7012 81.625 63.3262 81.8242C62.9512 82.0195 62.5391 82.1172 62.0898 82.1172C61.6133 82.1172 61.1973 82.0332 60.8418 81.8652C60.4902 81.6973 60.1973 81.4668 59.9629 81.1738C59.7324 80.8809 59.5586 80.5449 59.4414 80.166C59.3281 79.7832 59.2715 79.3789 59.2715 78.9531V78.707C59.2715 78.2812 59.3281 77.8789 59.4414 77.5C59.5586 77.1172 59.7324 76.7793 59.9629 76.4863C60.1973 76.1934 60.4902 75.9629 60.8418 75.7949C61.1973 75.627 61.6133 75.543 62.0898 75.543C62.5859 75.543 63.0195 75.6445 63.3906 75.8477C63.7617 76.0469 64.0527 76.3203 64.2637 76.668C64.4785 77.0117 64.5957 77.4023 64.6152 77.8398H63.584C63.5645 77.5781 63.4902 77.3418 63.3613 77.1309C63.2363 76.9199 63.0645 76.752 62.8457 76.627C62.6309 76.498 62.3789 76.4336 62.0898 76.4336C61.7578 76.4336 61.4785 76.5 61.252 76.6328C61.0293 76.7617 60.8516 76.9375 60.7188 77.1602C60.5898 77.3789 60.4961 77.623 60.4375 77.8926C60.3828 78.1582 60.3555 78.4297 60.3555 78.707V78.9531C60.3555 79.2305 60.3828 79.5039 60.4375 79.7734C60.4922 80.043 60.584 80.2871 60.7129 80.5059C60.8457 80.7246 61.0234 80.9004 61.2461 81.0332C61.4727 81.1621 61.7539 81.2266 62.0898 81.2266ZM66.9238 73V82H65.834V73H66.9238ZM70.7969 75.6602L68.0312 78.6191L66.4844 80.2246L66.3965 79.0703L67.5039 77.7461L69.4727 75.6602H70.7969ZM69.8066 82L67.5449 78.9766L68.1074 78.0098L71.084 82H69.8066ZM74.4297 82.1172C73.9883 82.1172 73.5879 82.043 73.2285 81.8945C72.873 81.7422 72.5664 81.5293 72.3086 81.2559C72.0547 80.9824 71.8594 80.6582 71.7227 80.2832C71.5859 79.9082 71.5176 79.498 71.5176 79.0527V78.8066C71.5176 78.291 71.5938 77.832 71.7461 77.4297C71.8984 77.0234 72.1055 76.6797 72.3672 76.3984C72.6289 76.1172 72.9258 75.9043 73.2578 75.7598C73.5898 75.6152 73.9336 75.543 74.2891 75.543C74.7422 75.543 75.1328 75.6211 75.4609 75.7773C75.793 75.9336 76.0645 76.1523 76.2754 76.4336C76.4863 76.7109 76.6426 77.0391 76.7441 77.418C76.8457 77.793 76.8965 78.2031 76.8965 78.6484V79.1348H72.1621V78.25H75.8125V78.168C75.7969 77.8867 75.7383 77.6133 75.6367 77.3477C75.5391 77.082 75.3828 76.8633 75.168 76.6914C74.9531 76.5195 74.6602 76.4336 74.2891 76.4336C74.043 76.4336 73.8164 76.4863 73.6094 76.5918C73.4023 76.6934 73.2246 76.8457 73.0762 77.0488C72.9277 77.252 72.8125 77.5 72.7305 77.793C72.6484 78.0859 72.6074 78.4238 72.6074 78.8066V79.0527C72.6074 79.3535 72.6484 79.6367 72.7305 79.9023C72.8164 80.1641 72.9395 80.3945 73.0996 80.5938C73.2637 80.793 73.4609 80.9492 73.6914 81.0625C73.9258 81.1758 74.1914 81.2324 74.4883 81.2324C74.8711 81.2324 75.1953 81.1543 75.4609 80.998C75.7266 80.8418 75.959 80.6328 76.1582 80.3711L76.8145 80.8926C76.6777 81.0996 76.5039 81.2969 76.293 81.4844C76.082 81.6719 75.8223 81.8242 75.5137 81.9414C75.209 82.0586 74.8477 82.1172 74.4297 82.1172ZM79.8613 81.3438L81.625 75.6602H82.7852L80.2422 82.9785C80.1836 83.1348 80.1055 83.3027 80.0078 83.4824C79.9141 83.666 79.793 83.8398 79.6445 84.0039C79.4961 84.168 79.3164 84.3008 79.1055 84.4023C78.8984 84.5078 78.6504 84.5605 78.3613 84.5605C78.2754 84.5605 78.166 84.5488 78.0332 84.5254C77.9004 84.502 77.8066 84.4824 77.752 84.4668L77.7461 83.5879C77.7773 83.5918 77.8262 83.5957 77.8926 83.5996C77.9629 83.6074 78.0117 83.6113 78.0391 83.6113C78.2852 83.6113 78.4941 83.5781 78.666 83.5117C78.8379 83.4492 78.9824 83.3418 79.0996 83.1895C79.2207 83.041 79.3242 82.8359 79.4102 82.5742L79.8613 81.3438ZM78.5664 75.6602L80.2129 80.582L80.4941 81.7246L79.7148 82.123L77.3828 75.6602H78.5664Z" fill="#44444F"/>
<path d="M67.8164 49.2499V47.7499C67.8164 46.2499 68.5664 45.4999 70.0664 45.4999H74.5664C76.0664 45.4999 76.8164 46.2499 76.8164 47.7499V49.2499C76.8164 50.7499 76.0664 51.4999 74.5664 51.4999H70.0664C68.5664 51.4999 67.8164 50.7499 67.8164 49.2499ZM54.2414 39.8749H52.0664C50.2064 39.8749 48.6914 41.3899 48.6914 43.2499V49.2499C48.6914 51.1099 50.2064 52.6249 52.0664 52.6249H54.2414C54.4964 52.6249 54.6914 52.4299 54.6914 52.1749V40.3249C54.6914 40.0699 54.4964 39.8749 54.2414 39.8749ZM72.7214 23.4499C72.1364 23.2249 71.4914 23.5099 71.2664 24.0949L65.9564 37.7299C65.4464 39.0199 64.2014 39.8749 62.8064 39.8749H57.3764C57.1214 39.8749 56.9264 40.0699 56.9264 40.3249V52.6249H58.7264C61.0364 52.6249 63.1364 51.1849 63.9614 49.0399L73.3514 24.9049C73.5764 24.3199 73.2914 23.6749 72.7064 23.4499H72.7214Z" fill="#27CEF8"/>
</g>
<defs>
<filter id="filter0_d_162_5533" x="-14.6836" y="-13" width="155.963" height="130" filterUnits="userSpaceOnUse" color-interpolation-filters="sRGB">
<feFlood flood-opacity="0" result="BackgroundImageFix"/>
<feColorMatrix in="SourceAlpha" type="matrix" values="0 0 0 0 0 0 0 0 0 0 0 0 0 0 0 0 0 0 127 0" result="hardAlpha"/>
<feOffset dy="2"/>
<feGaussianBlur stdDeviation="7.5"/>
<feColorMatrix type="matrix" values="0 0 0 0 0.70967 0 0 0 0 0.70967 0 0 0 0 0.745556 0 0 0 0.15 0"/>
<feBlend mode="normal" in2="BackgroundImageFix" result="effect1_dropShadow_162_5533"/>
<feBlend mode="normal" in="SourceGraphic" in2="effect1_dropShadow_162_5533" result="shape"/>
</filter>
<clipPath id="clip0_162_5533">
<rect width="125.963" height="100" fill="white" transform="translate(0.316406)"/>
</clipPath>
</defs>
</svg>
