<svg width="20" height="20" viewBox="0 0 20 20" fill="none" xmlns="http://www.w3.org/2000/svg">
<path fill-rule="evenodd" clip-rule="evenodd" d="M10 13.3332C6.77834 13.3332 4.16667 10.7215 4.16667 7.49984C4.16667 4.27818 6.77834 1.6665 10 1.6665C13.2217 1.6665 15.8333 4.27818 15.8333 7.49984C15.8333 10.7215 13.2217 13.3332 10 13.3332ZM14.1667 7.08317C14.1667 5.16697 12.4163 3.33317 10.4167 3.33317C10.1865 3.33317 10 3.51972 10 3.74984C10 3.97996 10.1865 4.1665 10.4167 4.1665C11.9472 4.1665 13.3333 5.61875 13.3333 7.08317C13.3333 7.31329 13.5199 7.49984 13.75 7.49984C13.9801 7.49984 14.1667 7.31329 14.1667 7.08317Z" fill="#92929D"/>
<path d="M17.4664 16.0858C17.5842 16.3608 17.3826 16.6666 17.0834 16.6666H14.756L13.2114 18.2112C13.0103 18.4123 12.6713 18.3573 12.5441 18.1029L10.5865 14.4539C12.5981 14.2853 14.3558 13.2236 15.4615 11.6665L17.4664 16.0858Z" fill="#92929D"/>
<path d="M7.45646 18.1029C7.32927 18.3573 6.99025 18.4123 6.78915 18.2112L5.24453 16.6666H2.91712C2.61798 16.6666 2.4163 16.3608 2.53414 16.0858L4.58354 11.667C5.68945 13.2239 7.44715 14.2855 9.4588 14.4539L7.45646 18.1029Z" fill="#92929D"/>
</svg>
