<svg width="20" height="20" viewBox="0 0 20 20" fill="none" xmlns="http://www.w3.org/2000/svg">
<path fill-rule="evenodd" clip-rule="evenodd" d="M14.1663 3.33317V2.49984C14.1663 2.0396 14.5394 1.6665 14.9997 1.6665C15.4599 1.6665 15.833 2.0396 15.833 2.49984V3.33317H16.6663C18.0471 3.33317 19.1663 4.45246 19.1663 5.83317V8.33317V9.99984V14.1665C19.1663 16.9279 16.9278 19.1665 14.1663 19.1665H5.83301C3.07158 19.1665 0.833008 16.9279 0.833008 14.1665V9.99984V8.33317V5.83317C0.833008 4.45246 1.9523 3.33317 3.33301 3.33317H4.99967V2.49984C4.99967 2.0396 5.37277 1.6665 5.83301 1.6665C6.29324 1.6665 6.66634 2.0396 6.66634 2.49984V3.33317H14.1663ZM2.49967 8.33317H17.4997V5.83317C17.4997 5.37293 17.1266 4.99984 16.6663 4.99984H15.833C15.833 5.46007 15.4599 5.83317 14.9997 5.83317C14.5394 5.83317 14.1663 5.46007 14.1663 4.99984H6.66634C6.66634 5.46007 6.29324 5.83317 5.83301 5.83317C5.37277 5.83317 4.99967 5.46007 4.99967 4.99984H3.33301C2.87277 4.99984 2.49967 5.37293 2.49967 5.83317V8.33317ZM2.49967 9.99984V14.1665C2.49967 16.0075 3.99206 17.4998 5.83301 17.4998H14.1663C16.0073 17.4998 17.4997 16.0075 17.4997 14.1665V9.99984H2.49967Z" fill="#92929D"/>
</svg>
