<svg width="14" height="18" viewBox="0 0 14 18" fill="none" xmlns="http://www.w3.org/2000/svg">
<path fill-rule="evenodd" clip-rule="evenodd" d="M2.85434 6.43628V4.91164C2.85434 2.56963 4.73401 0.666504 7.05842 0.666504C9.38283 0.666504 11.2625 2.56963 11.2625 4.91164V6.43628H12.4524C13.1288 6.43628 13.6663 6.99118 13.6663 7.66294V16.1065C13.6663 16.7783 13.1288 17.3332 12.4524 17.3332H1.5469C0.870538 17.3332 0.333008 16.7783 0.333008 16.1065V7.66294C0.333008 6.99118 0.870538 6.43628 1.5469 6.43628H2.85434ZM1.852 7.95143V15.818H12.1474V7.95143H1.852ZM9.74352 6.41293V4.91164C9.74352 3.4014 8.53881 2.18166 7.05842 2.18166C5.57804 2.18166 4.37333 3.4014 4.37333 4.91164V6.41293H9.74352Z" fill="#92929D"/>
</svg>
