<svg width="127" height="100" viewBox="0 0 127 100" fill="none" xmlns="http://www.w3.org/2000/svg">
<g clip-path="url(#clip0_162_5521)">
<g filter="url(#filter0_d_162_5521)">
<rect x="0.650879" width="125.963" height="100" rx="15" fill="#D0F6FF"/>
</g>
<path d="M44.772 73.4688V82H43.6411V73.4688H44.772ZM48.3462 77.3066V78.2324H44.5259V77.3066H48.3462ZM48.9263 73.4688V74.3945H44.5259V73.4688H48.9263ZM53.5552 73.4219V82H52.4712V74.7754L50.2856 75.5723V74.5938L53.3853 73.4219H53.5552ZM60.0005 73.4688H62.8247C63.4653 73.4688 64.0063 73.5664 64.4478 73.7617C64.8931 73.957 65.231 74.2461 65.4614 74.6289C65.6958 75.0078 65.813 75.4746 65.813 76.0293C65.813 76.4199 65.7329 76.7773 65.5728 77.1016C65.4165 77.4219 65.1899 77.6953 64.8931 77.9219C64.6001 78.1445 64.2485 78.3105 63.8384 78.4199L63.522 78.543H60.8677L60.856 77.623H62.8599C63.2661 77.623 63.604 77.5527 63.8735 77.4121C64.1431 77.2676 64.3462 77.0742 64.4829 76.832C64.6196 76.5898 64.688 76.3223 64.688 76.0293C64.688 75.7012 64.6235 75.4141 64.4946 75.168C64.3657 74.9219 64.1626 74.7324 63.8853 74.5996C63.6118 74.4629 63.2583 74.3945 62.8247 74.3945H61.1313V82H60.0005V73.4688ZM64.9868 82L62.9126 78.1328L64.0903 78.127L66.1938 81.9297V82H64.9868ZM70.9692 80.916V77.6523C70.9692 77.4023 70.9185 77.1855 70.8169 77.002C70.7192 76.8145 70.5708 76.6699 70.3716 76.5684C70.1724 76.4668 69.9263 76.416 69.6333 76.416C69.3599 76.416 69.1196 76.4629 68.9126 76.5566C68.7095 76.6504 68.5493 76.7734 68.4321 76.9258C68.3188 77.0781 68.2622 77.2422 68.2622 77.418H67.1782C67.1782 77.1914 67.2368 76.9668 67.354 76.7441C67.4712 76.5215 67.6392 76.3203 67.8579 76.1406C68.0806 75.957 68.3462 75.8125 68.6548 75.707C68.9673 75.5977 69.3149 75.543 69.6978 75.543C70.1587 75.543 70.5649 75.6211 70.9165 75.7773C71.272 75.9336 71.5493 76.1699 71.7485 76.4863C71.9517 76.7988 72.0532 77.1914 72.0532 77.6641V80.6172C72.0532 80.8281 72.0708 81.0527 72.106 81.291C72.145 81.5293 72.2017 81.7344 72.2759 81.9062V82H71.145C71.0903 81.875 71.0474 81.709 71.0161 81.502C70.9849 81.291 70.9692 81.0957 70.9692 80.916ZM71.1567 78.1562L71.1685 78.918H70.0728C69.7642 78.918 69.4888 78.9434 69.2466 78.9941C69.0044 79.041 68.8013 79.1133 68.6372 79.2109C68.4731 79.3086 68.3481 79.4316 68.2622 79.5801C68.1763 79.7246 68.1333 79.8945 68.1333 80.0898C68.1333 80.2891 68.1782 80.4707 68.2681 80.6348C68.3579 80.7988 68.4927 80.9297 68.6724 81.0273C68.856 81.1211 69.0806 81.168 69.3462 81.168C69.6782 81.168 69.9712 81.0977 70.2251 80.957C70.479 80.8164 70.6802 80.6445 70.8286 80.4414C70.981 80.2383 71.063 80.041 71.0747 79.8496L71.5376 80.3711C71.5103 80.5352 71.436 80.7168 71.3149 80.916C71.1938 81.1152 71.0317 81.3066 70.8286 81.4902C70.6294 81.6699 70.3911 81.8203 70.1138 81.9414C69.8403 82.0586 69.5317 82.1172 69.188 82.1172C68.7583 82.1172 68.3813 82.0332 68.0571 81.8652C67.7368 81.6973 67.4868 81.4727 67.3071 81.1914C67.1313 80.9062 67.0435 80.5879 67.0435 80.2363C67.0435 79.8965 67.1099 79.5977 67.2427 79.3398C67.3755 79.0781 67.5669 78.8613 67.8169 78.6895C68.0669 78.5137 68.3677 78.3809 68.7192 78.291C69.0708 78.2012 69.4634 78.1562 69.897 78.1562H71.1567ZM76.2954 81.2266C76.5532 81.2266 76.7915 81.1738 77.0103 81.0684C77.229 80.9629 77.4087 80.8184 77.5493 80.6348C77.6899 80.4473 77.77 80.2344 77.7896 79.9961H78.8208C78.8013 80.3711 78.6743 80.7207 78.4399 81.0449C78.2095 81.3652 77.9067 81.625 77.5317 81.8242C77.1567 82.0195 76.7446 82.1172 76.2954 82.1172C75.8188 82.1172 75.4028 82.0332 75.0474 81.8652C74.6958 81.6973 74.4028 81.4668 74.1685 81.1738C73.938 80.8809 73.7642 80.5449 73.647 80.166C73.5337 79.7832 73.4771 79.3789 73.4771 78.9531V78.707C73.4771 78.2812 73.5337 77.8789 73.647 77.5C73.7642 77.1172 73.938 76.7793 74.1685 76.4863C74.4028 76.1934 74.6958 75.9629 75.0474 75.7949C75.4028 75.627 75.8188 75.543 76.2954 75.543C76.7915 75.543 77.2251 75.6445 77.5962 75.8477C77.9673 76.0469 78.2583 76.3203 78.4692 76.668C78.6841 77.0117 78.8013 77.4023 78.8208 77.8398H77.7896C77.77 77.5781 77.6958 77.3418 77.5669 77.1309C77.4419 76.9199 77.27 76.752 77.0513 76.627C76.8364 76.498 76.5845 76.4336 76.2954 76.4336C75.9634 76.4336 75.6841 76.5 75.4575 76.6328C75.2349 76.7617 75.0571 76.9375 74.9243 77.1602C74.7954 77.3789 74.7017 77.623 74.6431 77.8926C74.5884 78.1582 74.561 78.4297 74.561 78.707V78.9531C74.561 79.2305 74.5884 79.5039 74.6431 79.7734C74.6978 80.043 74.7896 80.2871 74.9185 80.5059C75.0513 80.7246 75.229 80.9004 75.4517 81.0332C75.6782 81.1621 75.9595 81.2266 76.2954 81.2266ZM82.6704 82.1172C82.229 82.1172 81.8286 82.043 81.4692 81.8945C81.1138 81.7422 80.8071 81.5293 80.5493 81.2559C80.2954 80.9824 80.1001 80.6582 79.9634 80.2832C79.8267 79.9082 79.7583 79.498 79.7583 79.0527V78.8066C79.7583 78.291 79.8345 77.832 79.9868 77.4297C80.1392 77.0234 80.3462 76.6797 80.6079 76.3984C80.8696 76.1172 81.1665 75.9043 81.4985 75.7598C81.8306 75.6152 82.1743 75.543 82.5298 75.543C82.9829 75.543 83.3735 75.6211 83.7017 75.7773C84.0337 75.9336 84.3052 76.1523 84.5161 76.4336C84.7271 76.7109 84.8833 77.0391 84.9849 77.418C85.0864 77.793 85.1372 78.2031 85.1372 78.6484V79.1348H80.4028V78.25H84.0532V78.168C84.0376 77.8867 83.979 77.6133 83.8774 77.3477C83.7798 77.082 83.6235 76.8633 83.4087 76.6914C83.1938 76.5195 82.9009 76.4336 82.5298 76.4336C82.2837 76.4336 82.0571 76.4863 81.8501 76.5918C81.6431 76.6934 81.4653 76.8457 81.3169 77.0488C81.1685 77.252 81.0532 77.5 80.9712 77.793C80.8892 78.0859 80.8481 78.4238 80.8481 78.8066V79.0527C80.8481 79.3535 80.8892 79.6367 80.9712 79.9023C81.0571 80.1641 81.1802 80.3945 81.3403 80.5938C81.5044 80.793 81.7017 80.9492 81.9321 81.0625C82.1665 81.1758 82.4321 81.2324 82.729 81.2324C83.1118 81.2324 83.436 81.1543 83.7017 80.998C83.9673 80.8418 84.1997 80.6328 84.3989 80.3711L85.0552 80.8926C84.9185 81.0996 84.7446 81.2969 84.5337 81.4844C84.3228 81.6719 84.063 81.8242 83.7544 81.9414C83.4497 82.0586 83.0884 82.1172 82.6704 82.1172Z" fill="#44444F"/>
<path d="M63.6509 23C55.3709 23 48.6509 29.72 48.6509 38C48.6509 46.28 55.3709 53 63.6509 53C71.9309 53 78.6509 46.28 78.6509 38C78.6509 29.72 71.9309 23 63.6509 23ZM56.8409 41.93C57.1559 42.47 56.9759 43.145 56.4359 43.475C56.2559 43.58 56.0609 43.625 55.8659 43.625C55.4759 43.625 55.1009 43.43 54.8909 43.07C54.0059 41.555 53.5259 39.8 53.5259 38C53.5259 32.42 58.0709 27.875 63.6509 27.875C64.3859 27.875 65.0909 27.95 65.8409 28.115C66.4409 28.235 66.8309 28.835 66.6959 29.45C66.5759 30.05 65.9759 30.44 65.3609 30.305C60.3659 29.24 55.7759 33.08 55.7759 38C55.7759 39.425 56.1359 40.745 56.8409 41.93ZM68.9609 33.305C67.8809 35.3 65.8709 38.96 65.2409 39.59C64.3559 40.475 62.9459 40.475 62.0609 39.59C61.1759 38.705 61.1759 37.295 62.0609 36.41C62.6909 35.78 66.3509 33.77 68.3459 32.69C68.7509 32.48 69.1709 32.9 68.9609 33.305ZM72.4109 43.07C72.2009 43.43 71.8259 43.625 71.4359 43.625C71.2409 43.625 71.0459 43.58 70.8659 43.475C70.3259 43.145 70.1459 42.47 70.4609 41.93C71.1659 40.745 71.5259 39.425 71.5259 38C71.5259 37.43 71.4659 36.86 71.3459 36.29C71.2109 35.675 71.6009 35.075 72.2009 34.955C72.8159 34.82 73.4159 35.21 73.5359 35.81C73.7009 36.545 73.7759 37.265 73.7759 38C73.7759 39.8 73.2959 41.555 72.4109 43.07Z" fill="#27CEF8"/>
</g>
<defs>
<filter id="filter0_d_162_5521" x="-14.3491" y="-13" width="155.963" height="130" filterUnits="userSpaceOnUse" color-interpolation-filters="sRGB">
<feFlood flood-opacity="0" result="BackgroundImageFix"/>
<feColorMatrix in="SourceAlpha" type="matrix" values="0 0 0 0 0 0 0 0 0 0 0 0 0 0 0 0 0 0 127 0" result="hardAlpha"/>
<feOffset dy="2"/>
<feGaussianBlur stdDeviation="7.5"/>
<feColorMatrix type="matrix" values="0 0 0 0 0.70967 0 0 0 0 0.70967 0 0 0 0 0.745556 0 0 0 0.15 0"/>
<feBlend mode="normal" in2="BackgroundImageFix" result="effect1_dropShadow_162_5521"/>
<feBlend mode="normal" in="SourceGraphic" in2="effect1_dropShadow_162_5521" result="shape"/>
</filter>
<clipPath id="clip0_162_5521">
<rect width="125.963" height="100" fill="white" transform="translate(0.650879)"/>
</clipPath>
</defs>
</svg>
