<svg width="25" height="24" viewBox="0 0 25 24" fill="none" xmlns="http://www.w3.org/2000/svg">
<path d="M8.61913 16.4196C8.39804 16.2541 8.35293 15.9408 8.51839 15.7197C8.68384 15.4986 8.99719 15.4535 9.21828 15.619C11.2194 17.1165 14.6666 17.1258 16.6098 15.6237C16.8283 15.4548 17.1423 15.495 17.3112 15.7135C17.4801 15.932 17.4399 16.246 17.2214 16.4149C14.9191 18.1945 10.9767 18.1839 8.61913 16.4196Z" fill="#92929D"/>
<path d="M9.91211 11C10.4644 11 10.9121 10.5523 10.9121 10C10.9121 9.44772 10.4644 9 9.91211 9C9.35982 9 8.91211 9.44772 8.91211 10C8.91211 10.5523 9.35982 11 9.91211 11Z" fill="#92929D"/>
<path d="M15.9121 11C16.4644 11 16.9121 10.5523 16.9121 10C16.9121 9.44772 16.4644 9 15.9121 9C15.3598 9 14.9121 9.44772 14.9121 10C14.9121 10.5523 15.3598 11 15.9121 11Z" fill="#92929D"/>
<path fill-rule="evenodd" clip-rule="evenodd" d="M2.41211 12C2.41211 17.799 7.11312 22.5 12.9121 22.5C18.7111 22.5 23.4121 17.799 23.4121 12C23.4121 6.20101 18.7111 1.5 12.9121 1.5C7.11312 1.5 2.41211 6.20101 2.41211 12ZM22.4121 12C22.4121 17.2467 18.1588 21.5 12.9121 21.5C7.6654 21.5 3.41211 17.2467 3.41211 12C3.41211 6.75329 7.6654 2.5 12.9121 2.5C18.1588 2.5 22.4121 6.75329 22.4121 12Z" fill="#92929D"/>
</svg>
