<svg width="127" height="100" viewBox="0 0 127 100" fill="none" xmlns="http://www.w3.org/2000/svg">
<g clip-path="url(#clip0_162_5527)">
<g filter="url(#filter0_d_162_5527)">
<rect x="0.20459" width="125.963" height="100" rx="15" fill="#D0F6FF"/>
</g>
<path d="M50.7417 79.8438C50.7417 79.6445 50.7104 79.4688 50.6479 79.3164C50.5894 79.1602 50.4839 79.0195 50.3315 78.8945C50.1831 78.7695 49.9761 78.6504 49.7104 78.5371C49.4487 78.4238 49.1167 78.3086 48.7144 78.1914C48.2925 78.0664 47.9116 77.9277 47.5718 77.7754C47.2319 77.6191 46.9409 77.4414 46.6987 77.2422C46.4565 77.043 46.271 76.8145 46.1421 76.5566C46.0132 76.2988 45.9487 76.0039 45.9487 75.6719C45.9487 75.3398 46.0171 75.0332 46.1538 74.752C46.2905 74.4707 46.4858 74.2266 46.7397 74.0195C46.9976 73.8086 47.3042 73.6445 47.6597 73.5273C48.0151 73.4102 48.4116 73.3516 48.8491 73.3516C49.4897 73.3516 50.0327 73.4746 50.478 73.7207C50.9272 73.9629 51.269 74.2812 51.5034 74.6758C51.7378 75.0664 51.855 75.4844 51.855 75.9297H50.73C50.73 75.6094 50.6616 75.3262 50.5249 75.0801C50.3882 74.8301 50.1812 74.6348 49.9038 74.4941C49.6265 74.3496 49.2749 74.2773 48.8491 74.2773C48.4468 74.2773 48.1147 74.3379 47.853 74.459C47.5913 74.5801 47.396 74.7441 47.2671 74.9512C47.1421 75.1582 47.0796 75.3945 47.0796 75.6602C47.0796 75.8398 47.1167 76.0039 47.1909 76.1523C47.269 76.2969 47.3882 76.4316 47.5483 76.5566C47.7124 76.6816 47.9194 76.7969 48.1694 76.9023C48.4233 77.0078 48.7261 77.1094 49.0776 77.207C49.562 77.3438 49.98 77.4961 50.3315 77.6641C50.6831 77.832 50.9722 78.0215 51.1987 78.2324C51.4292 78.4395 51.5991 78.6758 51.7085 78.9414C51.8218 79.2031 51.8784 79.5 51.8784 79.832C51.8784 80.1797 51.8081 80.4941 51.6675 80.7754C51.5269 81.0566 51.3257 81.2969 51.064 81.4961C50.8022 81.6953 50.4878 81.8496 50.1206 81.959C49.7573 82.0645 49.3511 82.1172 48.9019 82.1172C48.5073 82.1172 48.1187 82.0625 47.7358 81.9531C47.3569 81.8438 47.0112 81.6797 46.6987 81.4609C46.3901 81.2422 46.1421 80.9727 45.9546 80.6523C45.771 80.3281 45.6792 79.9531 45.6792 79.5273H46.8042C46.8042 79.8203 46.8608 80.0723 46.9741 80.2832C47.0874 80.4902 47.2417 80.6621 47.437 80.7988C47.6362 80.9355 47.8608 81.0371 48.1108 81.1035C48.3647 81.166 48.6284 81.1973 48.9019 81.1973C49.2964 81.1973 49.6304 81.1426 49.9038 81.0332C50.1772 80.9238 50.3843 80.7676 50.5249 80.5645C50.6694 80.3613 50.7417 80.1211 50.7417 79.8438ZM52.8687 78.9004V78.7656C52.8687 78.3086 52.9351 77.8848 53.0679 77.4941C53.2007 77.0996 53.3921 76.7578 53.6421 76.4688C53.8921 76.1758 54.1948 75.9492 54.5503 75.7891C54.9058 75.625 55.3042 75.543 55.7456 75.543C56.1909 75.543 56.5913 75.625 56.9468 75.7891C57.3062 75.9492 57.6108 76.1758 57.8608 76.4688C58.1147 76.7578 58.3081 77.0996 58.4409 77.4941C58.5737 77.8848 58.6401 78.3086 58.6401 78.7656V78.9004C58.6401 79.3574 58.5737 79.7812 58.4409 80.1719C58.3081 80.5625 58.1147 80.9043 57.8608 81.1973C57.6108 81.4863 57.3081 81.7129 56.9526 81.877C56.6011 82.0371 56.2026 82.1172 55.7573 82.1172C55.312 82.1172 54.9116 82.0371 54.5562 81.877C54.2007 81.7129 53.896 81.4863 53.6421 81.1973C53.3921 80.9043 53.2007 80.5625 53.0679 80.1719C52.9351 79.7812 52.8687 79.3574 52.8687 78.9004ZM53.9526 78.7656V78.9004C53.9526 79.2168 53.9897 79.5156 54.064 79.7969C54.1382 80.0742 54.2495 80.3203 54.3979 80.5352C54.5503 80.75 54.7397 80.9199 54.9663 81.0449C55.1929 81.166 55.4565 81.2266 55.7573 81.2266C56.0542 81.2266 56.314 81.166 56.5366 81.0449C56.7632 80.9199 56.9507 80.75 57.0991 80.5352C57.2476 80.3203 57.3589 80.0742 57.4331 79.7969C57.5112 79.5156 57.5503 79.2168 57.5503 78.9004V78.7656C57.5503 78.4531 57.5112 78.1582 57.4331 77.8809C57.3589 77.5996 57.2456 77.3516 57.0933 77.1367C56.9448 76.918 56.7573 76.7461 56.5308 76.6211C56.3081 76.4961 56.0464 76.4336 55.7456 76.4336C55.4487 76.4336 55.187 76.4961 54.9604 76.6211C54.7378 76.7461 54.5503 76.918 54.3979 77.1367C54.2495 77.3516 54.1382 77.5996 54.064 77.8809C53.9897 78.1582 53.9526 78.4531 53.9526 78.7656ZM62.5366 81.2266C62.7944 81.2266 63.0327 81.1738 63.2515 81.0684C63.4702 80.9629 63.6499 80.8184 63.7905 80.6348C63.9312 80.4473 64.0112 80.2344 64.0308 79.9961H65.062C65.0425 80.3711 64.9155 80.7207 64.6812 81.0449C64.4507 81.3652 64.1479 81.625 63.7729 81.8242C63.3979 82.0195 62.9858 82.1172 62.5366 82.1172C62.0601 82.1172 61.644 82.0332 61.2886 81.8652C60.937 81.6973 60.644 81.4668 60.4097 81.1738C60.1792 80.8809 60.0054 80.5449 59.8882 80.166C59.7749 79.7832 59.7183 79.3789 59.7183 78.9531V78.707C59.7183 78.2812 59.7749 77.8789 59.8882 77.5C60.0054 77.1172 60.1792 76.7793 60.4097 76.4863C60.644 76.1934 60.937 75.9629 61.2886 75.7949C61.644 75.627 62.0601 75.543 62.5366 75.543C63.0327 75.543 63.4663 75.6445 63.8374 75.8477C64.2085 76.0469 64.4995 76.3203 64.7104 76.668C64.9253 77.0117 65.0425 77.4023 65.062 77.8398H64.0308C64.0112 77.5781 63.937 77.3418 63.8081 77.1309C63.6831 76.9199 63.5112 76.752 63.2925 76.627C63.0776 76.498 62.8257 76.4336 62.5366 76.4336C62.2046 76.4336 61.9253 76.5 61.6987 76.6328C61.4761 76.7617 61.2983 76.9375 61.1655 77.1602C61.0366 77.3789 60.9429 77.623 60.8843 77.8926C60.8296 78.1582 60.8022 78.4297 60.8022 78.707V78.9531C60.8022 79.2305 60.8296 79.5039 60.8843 79.7734C60.939 80.043 61.0308 80.2871 61.1597 80.5059C61.2925 80.7246 61.4702 80.9004 61.6929 81.0332C61.9194 81.1621 62.2007 81.2266 62.5366 81.2266ZM68.8179 81.2266C69.0757 81.2266 69.314 81.1738 69.5327 81.0684C69.7515 80.9629 69.9312 80.8184 70.0718 80.6348C70.2124 80.4473 70.2925 80.2344 70.312 79.9961H71.3433C71.3237 80.3711 71.1968 80.7207 70.9624 81.0449C70.7319 81.3652 70.4292 81.625 70.0542 81.8242C69.6792 82.0195 69.2671 82.1172 68.8179 82.1172C68.3413 82.1172 67.9253 82.0332 67.5698 81.8652C67.2183 81.6973 66.9253 81.4668 66.6909 81.1738C66.4604 80.8809 66.2866 80.5449 66.1694 80.166C66.0562 79.7832 65.9995 79.3789 65.9995 78.9531V78.707C65.9995 78.2812 66.0562 77.8789 66.1694 77.5C66.2866 77.1172 66.4604 76.7793 66.6909 76.4863C66.9253 76.1934 67.2183 75.9629 67.5698 75.7949C67.9253 75.627 68.3413 75.543 68.8179 75.543C69.314 75.543 69.7476 75.6445 70.1187 75.8477C70.4897 76.0469 70.7808 76.3203 70.9917 76.668C71.2065 77.0117 71.3237 77.4023 71.3433 77.8398H70.312C70.2925 77.5781 70.2183 77.3418 70.0894 77.1309C69.9644 76.9199 69.7925 76.752 69.5737 76.627C69.3589 76.498 69.1069 76.4336 68.8179 76.4336C68.4858 76.4336 68.2065 76.5 67.98 76.6328C67.7573 76.7617 67.5796 76.9375 67.4468 77.1602C67.3179 77.3789 67.2241 77.623 67.1655 77.8926C67.1108 78.1582 67.0835 78.4297 67.0835 78.707V78.9531C67.0835 79.2305 67.1108 79.5039 67.1655 79.7734C67.2202 80.043 67.312 80.2871 67.4409 80.5059C67.5737 80.7246 67.7515 80.9004 67.9741 81.0332C68.2007 81.1621 68.4819 81.2266 68.8179 81.2266ZM75.1929 82.1172C74.7515 82.1172 74.3511 82.043 73.9917 81.8945C73.6362 81.7422 73.3296 81.5293 73.0718 81.2559C72.8179 80.9824 72.6226 80.6582 72.4858 80.2832C72.3491 79.9082 72.2808 79.498 72.2808 79.0527V78.8066C72.2808 78.291 72.3569 77.832 72.5093 77.4297C72.6616 77.0234 72.8687 76.6797 73.1304 76.3984C73.3921 76.1172 73.689 75.9043 74.021 75.7598C74.353 75.6152 74.6968 75.543 75.0522 75.543C75.5054 75.543 75.896 75.6211 76.2241 75.7773C76.5562 75.9336 76.8276 76.1523 77.0386 76.4336C77.2495 76.7109 77.4058 77.0391 77.5073 77.418C77.6089 77.793 77.6597 78.2031 77.6597 78.6484V79.1348H72.9253V78.25H76.5757V78.168C76.5601 77.8867 76.5015 77.6133 76.3999 77.3477C76.3022 77.082 76.146 76.8633 75.9312 76.6914C75.7163 76.5195 75.4233 76.4336 75.0522 76.4336C74.8062 76.4336 74.5796 76.4863 74.3726 76.5918C74.1655 76.6934 73.9878 76.8457 73.8394 77.0488C73.6909 77.252 73.5757 77.5 73.4937 77.793C73.4116 78.0859 73.3706 78.4238 73.3706 78.8066V79.0527C73.3706 79.3535 73.4116 79.6367 73.4937 79.9023C73.5796 80.1641 73.7026 80.3945 73.8628 80.5938C74.0269 80.793 74.2241 80.9492 74.4546 81.0625C74.689 81.1758 74.9546 81.2324 75.2515 81.2324C75.6343 81.2324 75.9585 81.1543 76.2241 80.998C76.4897 80.8418 76.7222 80.6328 76.9214 80.3711L77.5776 80.8926C77.4409 81.0996 77.2671 81.2969 77.0562 81.4844C76.8452 81.6719 76.5854 81.8242 76.2769 81.9414C75.9722 82.0586 75.6108 82.1172 75.1929 82.1172ZM80.0093 76.6562V82H78.9253V75.6602H79.98L80.0093 76.6562ZM81.9897 75.625L81.9839 76.6328C81.894 76.6133 81.8081 76.6016 81.7261 76.5977C81.6479 76.5898 81.5581 76.5859 81.4565 76.5859C81.2065 76.5859 80.9858 76.625 80.7944 76.7031C80.603 76.7812 80.4409 76.8906 80.3081 77.0312C80.1753 77.1719 80.0698 77.3398 79.9917 77.5352C79.9175 77.7266 79.8687 77.9375 79.8452 78.168L79.5405 78.3438C79.5405 77.9609 79.5776 77.6016 79.6519 77.2656C79.73 76.9297 79.8491 76.6328 80.0093 76.375C80.1694 76.1133 80.3726 75.9102 80.6187 75.7656C80.8687 75.6172 81.1655 75.543 81.5093 75.543C81.5874 75.543 81.6772 75.5527 81.7788 75.5723C81.8804 75.5879 81.9507 75.6055 81.9897 75.625Z" fill="#44444F"/>
<path d="M75.9996 47.78C78.0846 45.065 79.3296 41.675 79.3296 38C79.3296 29.105 72.0996 21.875 63.2046 21.875C57.9396 21.875 53.2596 24.425 50.3196 28.355C50.2896 28.385 50.2746 28.415 50.2596 28.43C48.2796 31.115 47.0796 34.415 47.0796 38C47.0796 41.585 48.3246 45.065 50.4096 47.78C50.4096 47.78 50.4096 47.78 50.4246 47.795C52.3596 50.315 55.0296 52.265 58.1196 53.285C58.1646 53.3 58.2096 53.315 58.2546 53.33C59.8146 53.84 61.4796 54.11 63.2046 54.11C64.9296 54.11 66.5946 53.825 68.1546 53.33C68.1996 53.33 68.2446 53.3 68.2896 53.285C71.3796 52.25 74.0346 50.315 75.9846 47.795C75.9846 47.795 75.9846 47.795 75.9996 47.78ZM53.3946 35.93L56.2746 36.89L57.9996 43.79L56.6046 45.875H51.8046C50.4246 43.88 49.5696 41.525 49.3896 38.975L53.4096 35.93H53.3946ZM69.8046 45.875L68.4096 43.79L70.1346 36.875L72.9846 35.93L77.0196 38.99C76.8396 41.54 75.9846 43.895 74.6046 45.875H69.8046ZM74.0196 29.345L72.3246 33.77L69.3546 34.76L64.3146 31.4V28.565L68.7096 25.28C70.7946 26.195 72.6096 27.59 74.0196 29.345ZM57.6696 25.28L62.0646 28.565V31.4L57.0246 34.76L54.0396 33.77L52.3596 29.36C53.7696 27.605 55.5846 26.195 57.6846 25.28H57.6696ZM59.4696 51.35L58.4046 47.21L59.7846 45.125H66.5946L67.9746 47.21L66.9096 51.35C65.7246 51.68 64.4796 51.875 63.1896 51.875C61.8996 51.875 60.6546 51.68 59.4696 51.35Z" fill="#27CEF8"/>
</g>
<defs>
<filter id="filter0_d_162_5527" x="-14.7954" y="-13" width="155.963" height="130" filterUnits="userSpaceOnUse" color-interpolation-filters="sRGB">
<feFlood flood-opacity="0" result="BackgroundImageFix"/>
<feColorMatrix in="SourceAlpha" type="matrix" values="0 0 0 0 0 0 0 0 0 0 0 0 0 0 0 0 0 0 127 0" result="hardAlpha"/>
<feOffset dy="2"/>
<feGaussianBlur stdDeviation="7.5"/>
<feColorMatrix type="matrix" values="0 0 0 0 0.70967 0 0 0 0 0.70967 0 0 0 0 0.745556 0 0 0 0.15 0"/>
<feBlend mode="normal" in2="BackgroundImageFix" result="effect1_dropShadow_162_5527"/>
<feBlend mode="normal" in="SourceGraphic" in2="effect1_dropShadow_162_5527" result="shape"/>
</filter>
<clipPath id="clip0_162_5527">
<rect width="125.963" height="100" fill="white" transform="translate(0.20459)"/>
</clipPath>
</defs>
</svg>
