<svg width="24" height="24" viewBox="0 0 24 24" fill="none" xmlns="http://www.w3.org/2000/svg">
<path d="M6 15V5C6 4.44771 5.55228 4 5 4C4.44772 4 4 4.44771 4 5V15C4 15.5523 4.44772 16 5 16C5.55228 16 6 15.5523 6 15Z" fill="#92929D"/>
<path d="M20 12V5C20 4.44771 19.5523 4 19 4C18.4477 4 18 4.44771 18 5V12C18 12.5523 18.4477 13 19 13C19.5523 13 20 12.5523 20 12Z" fill="#92929D"/>
<path d="M13 5V19C13 19.5523 12.5523 20 12 20C11.4477 20 11 19.5523 11 19V5C11 4.44771 11.4477 4 12 4C12.5523 4 13 4.44771 13 5Z" fill="#92929D"/>
</svg>
